<mxfile host="app.diagrams.net" agent="Mozilla/5.0 (Windows NT 10.0; Win64; x64) AppleWebKit/537.36 (KHTML, like Gecko) Chrome/131.0.0.0 Safari/537.36" version="25.0.1">
  <diagram name="Page-1" id="wPJS5ywobEruS7apwtyq">
    <mxGraphModel dx="1961" dy="1769" grid="1" gridSize="10" guides="1" tooltips="1" connect="1" arrows="1" fold="1" page="1" pageScale="1" pageWidth="827" pageHeight="1169" math="0" shadow="0">
      <root>
        <mxCell id="0" />
        <mxCell id="1" parent="0" />
        <mxCell id="ZgB6NuoCo_RCvHNHEQX--13" value="&lt;font color=&quot;#0000cc&quot;&gt;&lt;i&gt;Embedding&lt;/i&gt;&lt;/font&gt;" style="rhombus;whiteSpace=wrap;html=1;fillColor=#dae8fc;strokeColor=#6c8ebf;" parent="1" vertex="1">
          <mxGeometry x="-290" y="-180" width="110" height="80" as="geometry" />
        </mxCell>
        <mxCell id="ZgB6NuoCo_RCvHNHEQX--20" value="&lt;font style=&quot;background-color: rgb(255, 217, 102); font-size: 11px;&quot;&gt;&lt;b&gt;rfc_1&lt;/b&gt;&lt;/font&gt;&lt;div&gt;&lt;div&gt;&lt;font style=&quot;background-color: rgb(255, 217, 102); font-size: 11px;&quot;&gt;&lt;b&gt;rfc_2&lt;/b&gt;&lt;/font&gt;&lt;/div&gt;&lt;/div&gt;" style="text;html=1;align=center;verticalAlign=middle;resizable=0;points=[];autosize=1;strokeColor=none;fillColor=none;" parent="1" vertex="1">
          <mxGeometry x="120" y="-430" width="50" height="40" as="geometry" />
        </mxCell>
        <mxCell id="ZgB6NuoCo_RCvHNHEQX--37" value="&lt;h1 style=&quot;margin-top: 0px;&quot;&gt;App.py&lt;/h1&gt;&lt;p&gt;&lt;span style=&quot;white-space: pre;&quot;&gt;&#x9;&lt;/span&gt;Register user&lt;/p&gt;&lt;p&gt;&lt;span style=&quot;white-space: pre;&quot;&gt;&#x9;&lt;/span&gt;Login user&lt;/p&gt;&lt;p&gt;&lt;span style=&quot;white-space: pre;&quot;&gt;&#x9;&lt;/span&gt;Entrée texte de l&#39;offre d&#39;emploi&lt;/p&gt;" style="text;html=1;whiteSpace=wrap;overflow=hidden;rounded=0;fillColor=default;strokeColor=default;" parent="1" vertex="1">
          <mxGeometry x="330" y="-1050.71" width="270" height="130" as="geometry" />
        </mxCell>
        <mxCell id="ZgB6NuoCo_RCvHNHEQX--40" value="&lt;font color=&quot;#0000cc&quot;&gt;&lt;i&gt;Segmentation&lt;/i&gt;&lt;/font&gt;" style="rhombus;whiteSpace=wrap;html=1;fillColor=#dae8fc;strokeColor=#6c8ebf;" parent="1" vertex="1">
          <mxGeometry x="-580" y="-180" width="120" height="80" as="geometry" />
        </mxCell>
        <mxCell id="ZgB6NuoCo_RCvHNHEQX--52" value="&lt;div style=&quot;&quot;&gt;&lt;font style=&quot;font-size: 12px;&quot;&gt;Match segment / compétences référentiel ESCO&lt;/font&gt;&lt;/div&gt;&lt;div style=&quot;&quot;&gt;&lt;font style=&quot;font-size: 12px;&quot;&gt;&lt;br&gt;&lt;/font&gt;&lt;/div&gt;&lt;div style=&quot;&quot;&gt;&lt;font style=&quot;font-size: 12px;&quot;&gt;Avis user : enregistrement des segments validés&lt;/font&gt;&lt;/div&gt;&lt;div style=&quot;&quot;&gt;&lt;font style=&quot;font-size: 12px;&quot;&gt;&lt;br&gt;&lt;/font&gt;&lt;/div&gt;&lt;div style=&quot;&quot;&gt;&lt;font style=&quot;font-size: 12px;&quot;&gt;Calcul des métriques obtenues pour chaque offre&lt;/font&gt;&lt;/div&gt;&lt;div style=&quot;&quot;&gt;&lt;font style=&quot;font-size: 12px;&quot;&gt;&lt;br&gt;&lt;/font&gt;&lt;/div&gt;&lt;div style=&quot;&quot;&gt;&lt;font style=&quot;font-size: 12px;&quot;&gt;Calcul du nombre de runs&amp;nbsp;&amp;nbsp;&lt;/font&gt;&lt;/div&gt;&lt;div style=&quot;&quot;&gt;&lt;font style=&quot;font-size: 12px;&quot;&gt;si 10 runs : calcul des métriques sur ces 10 runs&lt;/font&gt;&lt;/div&gt;&lt;div style=&quot;&quot;&gt;&lt;font style=&quot;font-size: 12px;&quot;&gt;Si baisse : réentrainement&lt;/font&gt;&lt;/div&gt;&lt;div style=&quot;&quot;&gt;&lt;font style=&quot;font-size: 12px;&quot;&gt;&lt;br&gt;&lt;/font&gt;&lt;/div&gt;&lt;div style=&quot;&quot;&gt;&lt;font style=&quot;font-size: 12px;&quot;&gt;Si métriques de réentrainement meilleures que pour le précédent modèle : devient le nouveau modèle&lt;/font&gt;&lt;/div&gt;" style="rounded=0;whiteSpace=wrap;html=1;align=left;" parent="1" vertex="1">
          <mxGeometry x="310" y="-310" width="310" height="200" as="geometry" />
        </mxCell>
        <mxCell id="ZgB6NuoCo_RCvHNHEQX--60" value="&lt;b&gt;Sélection random&amp;nbsp;&lt;/b&gt;&lt;div&gt;&lt;b&gt;150 offres d&#39;emploi&lt;/b&gt;&lt;/div&gt;" style="text;html=1;align=center;verticalAlign=middle;resizable=0;points=[];autosize=1;strokeColor=default;" parent="1" vertex="1">
          <mxGeometry x="-575" y="-280" width="130" height="40" as="geometry" />
        </mxCell>
        <mxCell id="ZgB6NuoCo_RCvHNHEQX--64" value="&lt;b&gt;Annotation manuelle&lt;/b&gt;" style="rounded=0;whiteSpace=wrap;html=1;" parent="1" vertex="1">
          <mxGeometry x="-413" y="-160" width="73" height="40" as="geometry" />
        </mxCell>
        <mxCell id="Ubi-Qo0GCFhImLBKRemF-3" value="" style="endArrow=classic;html=1;rounded=0;exitX=1;exitY=1;exitDx=0;exitDy=0;" parent="1" edge="1">
          <mxGeometry width="50" height="50" relative="1" as="geometry">
            <mxPoint x="-340" y="-257.9200000000001" as="sourcePoint" />
            <mxPoint x="-420" y="-258" as="targetPoint" />
          </mxGeometry>
        </mxCell>
        <mxCell id="Ubi-Qo0GCFhImLBKRemF-12" value="" style="shape=datastore;whiteSpace=wrap;html=1;" parent="1" vertex="1">
          <mxGeometry x="-200" y="-310" width="100" height="80" as="geometry" />
        </mxCell>
        <mxCell id="Ubi-Qo0GCFhImLBKRemF-13" value="&lt;font style=&quot;font-size: 15px;&quot;&gt;&lt;b style=&quot;&quot;&gt;db_pco&lt;/b&gt;&lt;/font&gt;" style="text;html=1;align=center;verticalAlign=middle;resizable=0;points=[];autosize=1;strokeColor=none;fillColor=none;" parent="1" vertex="1">
          <mxGeometry x="-190" y="-275" width="80" height="30" as="geometry" />
        </mxCell>
        <mxCell id="Ubi-Qo0GCFhImLBKRemF-18" value="&lt;div style=&quot;forced-color-adjust: none; font-family: Consolas, &amp;quot;Courier New&amp;quot;, monospace; font-style: normal; font-variant-ligatures: normal; font-variant-caps: normal; letter-spacing: normal; orphans: 2; text-indent: 0px; text-transform: none; widows: 2; word-spacing: 0px; -webkit-text-stroke-width: 0px; white-space: pre; background-color: rgb(251, 251, 251); text-decoration-thickness: initial; text-decoration-style: initial; text-decoration-color: initial; font-size: 14px;&quot;&gt;&lt;font style=&quot;font-size: 14px;&quot;&gt;&lt;b style=&quot;&quot;&gt;table&lt;/b&gt;&lt;/font&gt;&lt;/div&gt;&lt;div style=&quot;forced-color-adjust: none; font-family: Consolas, &amp;quot;Courier New&amp;quot;, monospace; font-style: normal; font-variant-ligatures: normal; font-variant-caps: normal; letter-spacing: normal; orphans: 2; text-indent: 0px; text-transform: none; widows: 2; word-spacing: 0px; -webkit-text-stroke-width: 0px; white-space: pre; background-color: rgb(251, 251, 251); text-decoration-thickness: initial; text-decoration-style: initial; text-decoration-color: initial; font-size: 14px;&quot;&gt;&lt;font style=&quot;font-size: 14px;&quot;&gt;&lt;b style=&quot;&quot;&gt;offres_emploi&lt;/b&gt;&lt;/font&gt;&lt;/div&gt;" style="text;whiteSpace=wrap;html=1;align=center;" parent="1" vertex="1">
          <mxGeometry x="-323" y="-286.25" width="90" height="30" as="geometry" />
        </mxCell>
        <mxCell id="Ubi-Qo0GCFhImLBKRemF-20" value="" style="endArrow=classic;html=1;rounded=0;" parent="1" edge="1">
          <mxGeometry width="50" height="50" relative="1" as="geometry">
            <mxPoint x="-450" y="-139.53" as="sourcePoint" />
            <mxPoint x="-420" y="-140.53" as="targetPoint" />
          </mxGeometry>
        </mxCell>
        <mxCell id="TGhH9xrxgOH7shkzS83a-8" value="" style="endArrow=classic;html=1;rounded=0;" parent="1" edge="1">
          <mxGeometry width="50" height="50" relative="1" as="geometry">
            <mxPoint x="350" y="-540.94" as="sourcePoint" />
            <mxPoint x="180" y="-540.94" as="targetPoint" />
          </mxGeometry>
        </mxCell>
        <mxCell id="TGhH9xrxgOH7shkzS83a-9" value="" style="endArrow=classic;html=1;rounded=0;" parent="1" edge="1">
          <mxGeometry width="50" height="50" relative="1" as="geometry">
            <mxPoint x="180" y="-521.94" as="sourcePoint" />
            <mxPoint x="350" y="-521.61" as="targetPoint" />
          </mxGeometry>
        </mxCell>
        <mxCell id="TGhH9xrxgOH7shkzS83a-11" value="&lt;h1 style=&quot;margin-top: 0px;&quot;&gt;Api_model.py&lt;/h1&gt;&lt;p&gt;&amp;nbsp;&#39;/predict&#39; : récupère le texte d&#39;entrée&lt;/p&gt;&lt;p&gt;&lt;span style=&quot;white-space: pre;&quot;&gt;&#x9;&lt;/span&gt;Load modèles IA&lt;br&gt;&lt;/p&gt;&lt;p&gt;&lt;span style=&quot;font-style: italic; color: rgb(0, 0, 204); white-space: pre;&quot;&gt;&#x9;&lt;/span&gt;Segmentation du texte&lt;br&gt;&lt;/p&gt;&lt;p&gt;&lt;span style=&quot;white-space: pre;&quot;&gt;&#x9;&lt;/span&gt;Embedding de chaque segment&lt;br&gt;&lt;/p&gt;&lt;p&gt;&lt;span style=&quot;white-space: pre;&quot;&gt;&#x9;&lt;/span&gt;Classification offre / non offre&lt;/p&gt;&lt;p&gt;&lt;span style=&quot;white-space: pre;&quot;&gt;&#x9;&lt;/span&gt;Classification compétence / non &lt;span style=&quot;white-space: pre;&quot;&gt;&#x9;&lt;/span&gt;compétence&lt;/p&gt;&lt;p&gt;&lt;span style=&quot;white-space: pre;&quot;&gt;&#x9;&lt;/span&gt;Fonction de similarité aux compétences du &lt;span style=&quot;white-space: pre;&quot;&gt;&#x9;&lt;/span&gt;référentiel ESCO&lt;/p&gt;&lt;p&gt;&#39;/retrain&#39;: récupère les tables monitoring depuis API_data&lt;/p&gt;&lt;p&gt;&lt;span style=&quot;white-space: pre;&quot;&gt;&#x9;&lt;/span&gt;Préparation des datasets train/test&lt;br&gt;&lt;/p&gt;&lt;p&gt;&lt;span style=&quot;white-space: pre;&quot;&gt;&#x9;&lt;/span&gt;Recherche des meilleurs hyperparamètres pour les nouveaux rfc_1 et rfc_2&lt;br&gt;&lt;/p&gt;&lt;p&gt;&lt;span style=&quot;white-space: pre;&quot;&gt;&#x9;&lt;/span&gt;Entrainement des modèles&lt;br&gt;&lt;/p&gt;&lt;p&gt;&lt;span style=&quot;white-space: pre;&quot;&gt;&#x9;&lt;/span&gt;Si meilleures performances que modèles précédents : log des modèles + métriques dans MLFlow&lt;br&gt;&lt;/p&gt;" style="text;html=1;whiteSpace=wrap;overflow=hidden;rounded=0;fillColor=default;strokeColor=default;" parent="1" vertex="1">
          <mxGeometry x="10" y="-1050" width="270" height="448.13" as="geometry" />
        </mxCell>
        <mxCell id="TGhH9xrxgOH7shkzS83a-15" value="" style="endArrow=classic;html=1;rounded=0;" parent="1" edge="1">
          <mxGeometry width="50" height="50" relative="1" as="geometry">
            <mxPoint x="-180" y="-140" as="sourcePoint" />
            <mxPoint x="-159" y="-170" as="targetPoint" />
            <Array as="points">
              <mxPoint x="-159" y="-140" />
            </Array>
          </mxGeometry>
        </mxCell>
        <mxCell id="TGhH9xrxgOH7shkzS83a-16" value="" style="endArrow=classic;html=1;rounded=0;" parent="1" edge="1">
          <mxGeometry width="50" height="50" relative="1" as="geometry">
            <mxPoint x="640" y="-230" as="sourcePoint" />
            <mxPoint x="500" y="-20" as="targetPoint" />
            <Array as="points">
              <mxPoint x="680" y="-230" />
              <mxPoint x="680" y="-20" />
            </Array>
          </mxGeometry>
        </mxCell>
        <mxCell id="TGhH9xrxgOH7shkzS83a-25" value="" style="shape=flexArrow;endArrow=classic;html=1;rounded=0;" parent="1" edge="1">
          <mxGeometry width="50" height="50" relative="1" as="geometry">
            <mxPoint x="447.17" y="-460" as="sourcePoint" />
            <mxPoint x="447" y="-330" as="targetPoint" />
          </mxGeometry>
        </mxCell>
        <mxCell id="i0cpfaNezCLfOTg-FPlP-1" value="" style="shape=image;verticalLabelPosition=bottom;labelBackgroundColor=default;verticalAlign=top;aspect=fixed;imageAspect=0;image=data:image/png,iVBORw0KGgoAAAANSUhEUgAAASwAAACoCAMAAABt9SM9AAABGlBMVEX///8oMndpb5////3///z9+/4MH3G9v9H///qTl7olM3b9//7//f4oMngZJXCZoLiLkrANIG/X2eVHTYIjLnUZKmzR1d8AAGEfKnKUmbbPz90YJHChpLwADmL3+fbe4Opyd507Q4BMVIfm6e5ZXokAAGVpcJd6gqQAFWiCh6Xy9PhhZ44AAFhpcZdZXoVpcJ0NHGVscY82QHUYJWmpscQAEm1ZYpOjqME0OXlBS4RdZZwcKXq0tsaoq7zAyNZ4gZoqNGoAClu3ucNCR4kPH2NDS3imp8WNkaY3QnQAE13o6Og2O4AAGHCIjryChqxjZJLX29yZnqwcLWgKE3ZDUXrNztBVX5eytb62u9efoMJ5d6Pi6viwqL1dZIFhOZ8sAAAOqklEQVR4nO2cj1/aSBrGByYkaRIGggOGBEggCCFARX4oFojdbq3Vctra3b27vbv//9+4dyZgVdA9r66Fu/l+WoEAKfPwvu88804sQgKBQCAQCAQCgUAgEAgEAoFAIBAIBAKBQCAQCAQCgUAgEAgEAoFAIBAIBAKBQCAQCAQCgUAgEAgEgv9VsI6GXvOkycggFf/oz7PRSDrKmhNHNk1z/hph40d/ns1GRVkr3W16nrdfhAf/b2CMdYxvPXjsxQaIRfLu4sUqvI+/dRFi8EjHBjvIH0rsOR0tHsGLDPYMfz2WHv1nNhcDGQYfsgGD+IPEYmlILC6WJGHV9yvILfhwt2IfZaYuklTVgKMhys0yU5/JJekYVewSexKegvflhsVhAanqVqqFuVCh77owRhiE+lhyMbEc6kJIYXiZf32teNa8gVB0bMq9HjlJgeyV+nX2xDQd860CkQgCTasyIbJ14EtI8utOEMhmGwR+qQE+Jxi5s2SfWoNBno7bRzkWYQ/CI4vGaZiSfNlKyMFPbfRujwSHjQSRT5CUqtQm1iCoaiYNXEMy0KuAntOfe+bk2kcXlvV+v3h17pyGLzS85wECSoevN/zQPzethKal02lKLXL+thRCQLAkWWMMeGQl2gfdbuMMqb5MnYOc6+LKwc8+POtNyheqUalppAtaDAeTJpbUKMh/tKF2Zc5bKXRIxkxpu2dmXni4z0CYuTZpOnELjZJeMWTVZp2JiiPLlB0nAOfgO4MmOwopWWHJ6w7MCCpUzaobLE27pA+37YnmIkNSESSvv0cUfp6m/PoFR/kMQHFS+vekSiTSEGNOVWFT3Zr3MLEGaa91eXlZArFk2WYiGQbMDZXQH1KZi2VmeE3LOAP4OnpOC+5jVYWfUyfhtRh1q7pdeSihYi+d1hL30TQt0WulHowsx/L5fYx904z4UTWlNGvaKNBMhYtVRDAHoozp6NidkyFzHCCXgUpEG+0xykF/e8SCeQmnumY6sapVmgtotiEV0cqCZlHg+VEJ0rDHxUJhXS5X97PFhLwUi5ExiY78gAzZvwaBjFHJeZu78IEL/+JlB/w96CpKtQdrwuomvAa1UMUrNf6WWOA/fce0+WHPpAUIxYv8XbF4GkKZh8iSwMGlVKXnFNg5WaBtj3XQDXRA6CNiJTSnvuZ968UKT+Uim10j655YBGQ5IIMC+FcokFit7FkHsVTRCw72e1FR0dSglj+slZaGmW7l618vll7LH1cwUq6tHhfLuSUWzr2n5lGI3cbe6xB9kYkHFe+iseulXnjI30E01+L6tFYpeAb+BIqq49CeDhUXqjMv+OAxs7LDTamOpAtzFEfILCDXh+POp0SggIOvzc94+mbez1XEpkDLDOQ5Ia9DiDNzEozHgSOfbI9YlX4ivSjn2ipLCT+FOMq+YnzwYdGHuFhfdmqxg5fwxelpgQcZyvQdeZwt1I8j8BAHOzNe7Ga1Y50ZlMKV1TPNahG0kvTZjjOay/CK7eHIXOhBBmSBw/46/CehsZBOkWlVLBZfvcqECysBvl/ny0eYI7Cux1MARiEsLZGq64s+Az9qsHU5LKXBkBWiApzAYDNixbULn8NtaRyyAQ5ig0VrxbVccauq0bd/ebXkiHevDFbusM7DSWUDNm7GzGxnnKt4UeoknYuHJcxWzRjsGCyw4m6DtB1S8VFO5TiuLG/9SzIDHlkaTd6I9crfnrn+GYH8qdEbsVRYq4ANYuGg8s4Ly48MicVKVL+JZf/oz/1DkLBLFhUr74F2oBBb230LHOlGrLR1eSPWNjmj50NXp2TpEar1GuM0B0W4fdUGrlq3xEpYyzwsfossSWItCYhE6WlFmr34YggzKQ6j6NvKMJwWnm9sz4/atG4sFaXgTKkJixB3YFHAaUNRzizVpLVlYGV9Nli1csHXdgue1Bpm79d6FDyp3SnnbgLZK+9ttFp1emM/82QyoRpbsbkJykyq1UC3xErfFK2SwYeX67FtsNhmkF33Kf8qiFXZpaPPCNumVbhpXtes0fS5B/iMpPpL306PPa+5QxMgFmJisZp/R6zEeJmGcVtG+hwwrcDRspsni4VmO1lDV20n/y2ylFpjg808DsdLsbh18PKxWFos1v5NzeJytpZaxRYqnA6BWuITu4ElH9+w4fsSOpspJL6rBuWMacEmDjiMmI0He8o71SnWCLTNfO6bP4tzmflbVgt1daMsCvbviUUfFiudL0SzD8OCvtgMTBm8g9om1ZviztRSJSN+DFIwv4kXI+bLSYnrqS532fBdsfDiFMzso7iBtkmG9UliDRZNOjX23ODJwI+lDq0qBAzE0rvMDE27r30D+2f9Ua82hHCqfPlix2H4rsR2rQtevjxo2FyD6Ze/3ossbGcy8f3oatKxktFm7XPjsPqYWI07YqVDNaXzROHjB30k8LF1EIvZM+yNjg/n8u5nFAWmPDDl8zZ4geOv9Xgv8u28i1LZgJjEnAQldpKroI7upWFp1GE3FW9kEdl0yt3UJqkloVO6TqwEZR0H2kDolnU4Dlc2qWHJB5EVD7ZpUfNjt32B60F1WCh0rWAoodIgcFkaKubcVt3r+VX0Wfk4sXzVQA1zVSxSRoake8TZKUVHpxO5+9jG5UuDUdtaFQusg8XaNWT/9mxotY2Vj47viGWdhLCcNlDRh8WSvmPV4Uyac8YK0RUZGynVz/B9MHPA+jYNZ61YkqrIVqPCuhf7JIikzYktXS2SdWK95y0as63fiizSQsZqt/S2WGNW1PlmPqM16UPkdid53VBd4mTQzZv75hk8eEAsjD0CkafDLOqP823W2fizVfgPYLVEVe3BHbEsjYBY4YcjjgKhdNN1MJVVse5EFjlGzBRALKRsJftmrPXhkWLKsJIsksDnc+eFfdQ61AhT7lYa6gs9mFhq+BE+Ctt+NFDSyqP1O7wvDcz8KLSLyzQkHuJiyQW0jA1mklDGpFystOavnoNFFlmIdQlisffgVGsw3y13NFqFbyPsQzJDSh6yJaTbNsu7u+fUKYKMXbYTvRQrViQWa0yyPAoN1CLvEdI3QiwUlq7eJJfTIWvRgCmlZi5u1SzAGRI3//KNNedYFQusZ03Ot5QcaslVNoO0SBAWgvkUHIfbM6ulyEXH5J5YbG+WnSIW63ji8eKI0RVElrERYqGo/SaZ3D9chBb1UAU18umBrVdugTMW387QFlcm3AXq+Epk/SoPImZFm5Mq065AyLBljUNI4db8NGRXY328LxacgC9z4prVdAbx2slN5z20Adduwdc1PExyxvGeRHpc26mN4fZ45w5V3lZO09q6Tw3Z8ppU42cuyc/8NgoGLgzfHdM+69GDOTnuD1qsSXYi15ktHzomM6jdSR3pkm0OclhNZWtsgizJTCz7vfWLD6f269a5/fjVhy+DhJSFVsk3iXiDNU0p14XeZbHzA+V9TToY2GAOnjuKZv6U3ahuz3od2WcJS/vI91CHMp3INrtbml+3bKU5ur5mYu0PILJUW84XVBCYmr6EZtZPrGC2TPK2VWr1rXnrZVV5iByUqwXVxNodwztY7Vv7EbeQjNpoHK8Ffx99QvGVpmU5KO/VD78m+HUNYdmUf2FrYrXyyxye6TSre1nm8L7WYHq194KcKhXKEyZWZq/DNjuMbGASx5TNs43oQeBUcylVcv+N9odiUeKvLR6qob4bTvk2IopmrBelQ2RErXZTMX6FJ9geGZoOh7y1quJw5rWzNhwogHbK7B04j4vZMFSxNG0WQNjCcMZXz5KbrR3Xs5CfG5CEMLLD5De1fqPa+u3oGFj3/KRs0rrjpWkl97+JtV+j6y7OWpLWeqUf/Xl/JP7+HbGSx4k1V2fdsLgS5v+VwptvYu2zP78l1idimtWro4f6St+dmpuf2xhh5U3yLvtvxkyae4KxPo1ZfWBLle3Dfu9H2Qax0KpYkIoavXeRVjpNraD10AWfOFT+e94pyhRuQmxsxHz3MOvE4u60CmLdji2NnHvuw63d3GhO+/3+QH4Ic05hefBJ6608M8p4o2Ew7/nqSiNjw2DbBLdq1q3a9eb4+lx2LItSyyJm+WPGZ6uUB7577ObJX1O+/y94rTaxaCJtWQ7VEpY1gey1YEmZHvwN1jt6rjchmuXk0xYYOitNiUMHw5aJBjS/+WIBfnJVLB5cURhlDl7XaodeUfERemwk2KXmdNjZo8m6R05m7bzWaM9qJN8vZvrk+O+vwI2kSefv9m7Qrp1Mrma/O/UatbrVndLZ23ztVEZOmvp4Cy6+BQO/Tqz9K/+mlcV7nn8oVuHkoFrxjzy/FLarKPcutbMTKr/+oxrOosIArC4p/So7bqi0/VIl23KDmn79j6Fd2LUz860RC00P12iVTGbZymXZ+8N49XruW3Cx/Gg4Dvtmb6fxOVtFna+udxR1TJIJh1M0hgmDlAryINcYmf0rRbHCWsmeX78uhkF0tj1i4XBtYB3mpPhKPvaLlvF+3yMncS1zOu04/XBsFXOZQrafmpPCyXQ4yo+Gha63/xbmCAfEIp/bzoE7U5RO9E+/Qd2/ZXwzKgZosC1iIeVqjVpF9JT2ERNLcWg1rM6jd40w20ej926rrZ9l7Vp4eRLBTJh2jgomcdtyKfcvNwoayKe/6fVpGLA0HKQtH29BgYdMy64mohc+yWe61GpdWnT8YUxryvQsOT5y8q/a5r5te/l2VLi8Zr+J52Xz+eIOrU6js79Y2odmfpKJzj6QbJdM89p2RBbrlLbue62uzy6k/Y9PgXN75d3dUbnM/+7B3d1RsLs32t3twI9Ohx0ul/d2g1FnFIzgBZ0yHB6NOp29Dry+3Pla7mxFZHEyV8y4Lz3WYfOpv5tlpL6brfkPDjCyPRZc+0DyqrG2bfzo+zdi1+WFgC81ZRc9Fli/Z2GV9vSLofB382eM608htlGp0Gf/nQCLkyemhLFZV08JBAKBQCAQCAQCgUAgEAgEAoFAIBAIBAKBQCAQCAQCgUAgEAgEAoFAIBAIBAKBQCAQCAQCwf8G/wZPVpIzwmYzSQAAAABJRU5ErkJggg==;" parent="1" vertex="1">
          <mxGeometry x="-215" y="-752.8" width="130" height="72.8" as="geometry" />
        </mxCell>
        <mxCell id="i0cpfaNezCLfOTg-FPlP-2" value="&lt;b&gt;&lt;font style=&quot;font-size: 16px;&quot;&gt;API Offres d&#39;emploi&lt;/font&gt;&lt;/b&gt;" style="text;html=1;align=center;verticalAlign=middle;whiteSpace=wrap;rounded=0;" parent="1" vertex="1">
          <mxGeometry x="-180" y="-790" width="60" height="30" as="geometry" />
        </mxCell>
        <mxCell id="i0cpfaNezCLfOTg-FPlP-3" value="" style="shape=image;verticalLabelPosition=bottom;labelBackgroundColor=default;verticalAlign=top;aspect=fixed;imageAspect=0;image=data:image/png,iVBORw0KGgoAAAANSUhEUgAAAMgAAADICAMAAACahl6sAAAAk1BMVEUFmIr////6/f3I6OU1q6H19fXw+Pg3lYwQl4oPnI7r7OxpnpnDzcxpoZzh5OPL0tLV2tmtvryetbMklYp7pqLo6ulBlo47oJZVnJbm9PMipJjQ6+m14NyHq6hYoptUuK6Q0cuBy8RAsKW4xcSluLaRrapdnZdjqaOh19JrwrrO6+hZurF6yMGt3NiArKg+oJiZ1M/u6BBUAAAJFUlEQVR4nNWd22KqOhCGwZYCKhWUUmtrV5en3a7T3u//dBtQkcMkmSSThPVf9Ur9GuaUDBnPN6PHxXI5m72HYbiJPS/elH8UyWy7nKeGvtAj/8Q0y9ehx9GqSJYL8q8lBZlmeRHzGFoKk8Mj5XeTgQT7fIVkuK1Nkk2pvp8GZLpcY1eir2JLszAEIE9brkkgFiYn8AC6IEFW6FGc9XzUfcb0QNI8osCoFJ/mzkDmJItxU3hwAnLQtAxIq2NgGSQ4kj1TXUW5orGogRwMYdQoW6VVUQHZS0c+Oa2OVkBSYhMHUeQ9mCxIkKuGcDmdnsyCZAaNo6toaxBkuraFUSmUSlxkQOwtx1mxzKLgQYKTXYxKBT4zRoMsDPtcWFFGDXJ0gVEpQYZHHEhg1cq7CnGPFwrk0cljdVWEio4YkLllbzXQkgbkYCeW85RTgPxxTVHpXWjyQpCZa4azChGJAGTyj2uCq/4VFFwCEAspO1Yr/prwQUazHpWeuSQ8kMmI1qPSivd08UBGtR6VeGvCARmJv2qL47vYIKOIH32t5UEOrn8zLGaMZ4HM3eclsFh5FwPk0XWeyNZeBiRwmrfzFcH1CQzisI4SCw7xIIizuhanExZk4fqXigQZPAAyZgM5KwK27gAQB/tXsgLMZAiSuf6VGA3j4gBkOt4I0tagB2QAMmrPe9Pg4eqD/BUPVqX+w9UDCf6OB6tSygXJXf88vAoeSDrWnBdSxgGhL9Lv77T0jfPRUcAE2ZNzeJ8TDb3ecz/7DxOEPjeJdTj+Ezzo0ZQBYqC6/aWO8cB7rM5KYBADyWL8oszxtkF8/CMIYqAK+VJeji/U559AEAOx8FWR4wdiOWpNARADFvJNkeM7OpzlAIiBPrI7JYyXHf4bbo6rAZnTc+yUOH5LZRfHAYiBnfffChgPP+W+I5r0QFJ6jo0CB8bpdpX1QAykvR/yy/FL/luKLoiBOiR+kOUQpFYMpR0QA4WhdDD8VKsh8g6IAVOXzE5knG5HURvkiRSh1k85Djmn29G+BbIlJLhIKhgiUytY6xYIfVTfyXCgUytQ0Q1kSvXzb5IJhvjUCta+AVnS/PiWJIKhmtNtK2lA6HcX/0NzKDrdtqIrSEC+CYQOhoh6FqHFBYR+8+Q7kkM+tQK1vYDQ51nIYPid6OuKCwj5pgMuGOpbeaOgBqF3vqhS/YPQMvc1CHnCuENgKKdWoPIahNxE3sQcRFZ+VVGDUGe+90IMrdQKUlSDUNdUwn3rO9rlqJSWINTVujA7oXK6bR1KEGpbF5Tqr6RWflVeghDbuiA7IUitIBUlCHHGyC3VaVIrQFEJ8kz7kbzshNjptjXxfNoP5Oxbq+xaobXwHmk/kF2q/6BLrQBlHm1z1o7JQZlaAVp6tGUuKxi+mLLyq2Ye6YEbKxhq7FohlXikjeNwMJQ9KlBRSAoCB0MDqdVQofdO+GngqbqJ1GqojUe4yQidqj983WOluXCEIF/+UAzrB6Qb9glBXjUw9GstOkvcaXAQ7KjQefg3ZQzTYV9OG2UO42FfTp+qy0FUa1EtajxR4yDbUaEy9g81DrqwT+R+4xelx4ow7BOBfKlwvFDWWkQgLwrLIWq+lBPNhulP1043LisSCt1ZT616IqpH7qWdLvWOSuiRND182k+tejqRbD5sZJ0ufWo18yh6GT/krNzENvbRIzhViB9klsPMjsqBYsv0S8bKDe2oLDyCw2mJFjNjOyqBp3+EKNFiZmwbuzpW0I6IP7AY9E63UXXQo+t/d1gO2tSqq1kJorsdjzhVr2S2nl1Wx9N6H4FsMTN4WFVpUYHoJfKofmvyDoG+6oYBrbQR1WJmfBs7rEG03oDBvA1mfhv73FSjc4qIeBvMSGrVU6bdeCYOhuYPq7z6VasKRCMkilrMjHUIdFSaSA2i3o0iehvMsNO9Kr+AqPcC8oOh0Q6BtvYXEOW8kd9iZjC16qppYFZ+WYHbYmaoDwjQugFRdMC8V6NtHhVkDYiiA+b0W1txulcFNxCl5jN2MDSeWnV0fu/tDKK0A8FsMdN7r0VayxaIUvcZKxga2LXiKQ7aIAqtNYzsxJrTvepyzcAFZCr/X4RbzOw53avmHRD5u6h2oJXbP59d+V0Q6Z1TKBhaSq06OvZAZAteqFS3lVq11dzy0oBI1onDt8GsW3mt5q6E21UJUr3+w1LdURfG4xBEygP3g6GNehbS7T6RG4jUK+297OTNVVNMCoDIJFzdYGg3tWqrdcdWC0TiGr3OvrWV5ktYCxAEX191gqELp3vRuw+DoK2kVaqbea8FqZQBgj1haAVD+6lVS+1bqXpXt+EqxSYYOkitWurcE9YDQWVcm2swdJFatdSdP9a73hCTBF8OEqztWjG08nkgT2J7v5TqZt9rQWjOBUG44HMwtFzPDtW/QX5wKaswna9KdfcNrlF/FtwARHR5ZrVvbXXXCtZgvtXw4mLBw/Vm5b0WkYajCYCrpLlb2vcuU6tG0XCABwDCvcX/0857LQIBt/lD163zDn5cplaNoEkR4AX4NA2bxhRCvxkECQxcdUgneLgCPFthxMMuBiGdC2Li1kYqMWbVsgap0F/wRKSE8YOZo21GOaJncKU3AsSnfNOSTOwBUGyQYGTjuCqt2NMqOXOsAuJLFPQVc6Zu8iaLTUc2iAQaO4ICGdma8NZDNH1vTMNhGNOScCD+dDRrEgsmUYtGbY7Fd3H8FQ7E6Wzgm56FU4IR42hHMMpjLZ7bjBkQ7DzvYuVXsiD+3m1Wz8h3FUCcDp/GjZ5GgjiZMn8Wchg4FqQ0FDePF2LqtCSInzoo5FeMKY5aIH5g3Q+vBWOaFUF8f2HV5qPB/i4ZiNVFWff32ylBSkuxlHutcE5XHcT3MwvuK0LFQE0QP/hjGiWRMHINkLJKSUye9LwLKg9CkDJnMRbpi8HIRqMg5arkJh6wk9JqaIGUKFtilChH5lXEIL4/ORA649VRXD2ZAimV0jxhcSIbN6hBSu3XuizFUmsxqEBK7RPlLCxaZ/oUPhVIqcVWwV7CHJ+nC0QGUirY5wX+KQvzTCGAM0UJUis9CGmiYrZUDHtskYPUmiyy5SwJw04mE4fh++x4WJCYxED/A51Gh3x5q6kyAAAAAElFTkSuQmCC;" parent="1" vertex="1">
          <mxGeometry x="-180" y="-560" width="80" height="80" as="geometry" />
        </mxCell>
        <mxCell id="i0cpfaNezCLfOTg-FPlP-4" value="" style="endArrow=classic;html=1;rounded=0;" parent="1" edge="1">
          <mxGeometry width="50" height="50" relative="1" as="geometry">
            <mxPoint x="-260" y="-520.5400000000001" as="sourcePoint" />
            <mxPoint x="-190" y="-520.83" as="targetPoint" />
          </mxGeometry>
        </mxCell>
        <mxCell id="i0cpfaNezCLfOTg-FPlP-5" value="" style="endArrow=classic;html=1;rounded=0;" parent="1" edge="1">
          <mxGeometry width="50" height="50" relative="1" as="geometry">
            <mxPoint x="-139.32999999999998" y="-666.6700000000001" as="sourcePoint" />
            <mxPoint x="-139.32999999999998" y="-595" as="targetPoint" />
          </mxGeometry>
        </mxCell>
        <mxCell id="i0cpfaNezCLfOTg-FPlP-6" value="&lt;font size=&quot;1&quot;&gt;&lt;b style=&quot;font-size: 16px;&quot;&gt;API_data&lt;/b&gt;&lt;/font&gt;" style="text;html=1;align=center;verticalAlign=middle;resizable=0;points=[];autosize=1;strokeColor=none;fillColor=none;" parent="1" vertex="1">
          <mxGeometry x="-190" y="-595" width="90" height="30" as="geometry" />
        </mxCell>
        <mxCell id="i0cpfaNezCLfOTg-FPlP-7" value="&lt;i style=&quot;font-size: 14px;&quot;&gt;&lt;font style=&quot;font-size: 14px;&quot;&gt;Extraction automatisée :&amp;nbsp;&lt;/font&gt;&lt;/i&gt;&lt;div style=&quot;font-size: 14px;&quot;&gt;&lt;i style=&quot;&quot;&gt;&lt;font style=&quot;font-size: 14px;&quot;&gt;j-1 à j0&lt;/font&gt;&lt;/i&gt;&lt;/div&gt;" style="text;html=1;align=center;verticalAlign=middle;whiteSpace=wrap;rounded=0;" parent="1" vertex="1">
          <mxGeometry x="-260" y="-640" width="100" height="30" as="geometry" />
        </mxCell>
        <mxCell id="i0cpfaNezCLfOTg-FPlP-8" value="" style="shape=image;verticalLabelPosition=bottom;labelBackgroundColor=default;verticalAlign=top;aspect=fixed;imageAspect=0;image=data:image/png,iVBORw0KGgoAAAANSUhEUgAAAOEAAADhCAMAAAAJbSJIAAAAWlBMVEX///80aPWFpPlzl/jo7f4OWPQvZfWtvfpykPdKdvaJp/nI1Px/oPk7bvUkYPVojvd1mfhXgfZvlPihuPrh5/3z9v4AVPRiivcpYvWWr/qkuvrN2fx7nflqkvhFhPKiAAABK0lEQVR4nO3dS27CQBREUYwx+ZHEkEB+ZP/bzAI8efLkVcQ5K6irVs9a6s0GAAAAAAAAAAAAAOAmve9qzt1DV5ueS4a77qGrTUPJi8JcChXmU6gwn0KF+RQqzKdQYT6FCvMpVJhPocJ8ChXmU6gwn0KF+RQqzHfZl/zjwo/XovuasTtoYRznkuNn7bAv3UELY8183Ncu7NQdtKBQocJ+ChUq7KdQocJ+ChUq7KdQocJ+ChUq7KdQocJ+ChUq7KdQocJ+p5qxWpj3FuPrreT79FAzdAet9rN9LDl0D13t6bAtuXYPXU2hwnwKFeZTqDCfQoX5FCrMp1BhPoUK8ylUmE+hwnwKFeZTqDCfQoX5bqBwvpb8dg9d7Vz822vXPRQAAAAAAAAAAAAAoMcfR/RSZQEIBrIAAAAASUVORK5CYII=;" parent="1" vertex="1">
          <mxGeometry x="-363.5" y="-565" width="95" height="95" as="geometry" />
        </mxCell>
        <mxCell id="i0cpfaNezCLfOTg-FPlP-9" value="" style="endArrow=classic;html=1;rounded=0;" parent="1" edge="1">
          <mxGeometry width="50" height="50" relative="1" as="geometry">
            <mxPoint x="-152.32999999999998" y="-596.6700000000001" as="sourcePoint" />
            <mxPoint x="-152.32999999999998" y="-666.6700000000001" as="targetPoint" />
          </mxGeometry>
        </mxCell>
        <mxCell id="i0cpfaNezCLfOTg-FPlP-10" value="&lt;b&gt;&lt;font style=&quot;font-size: 16px;&quot;&gt;SimpleScraper:&lt;/font&gt;&lt;/b&gt;&lt;div&gt;&lt;b&gt;&lt;font style=&quot;font-size: 16px;&quot;&gt;Rennes Métropole&lt;/font&gt;&lt;/b&gt;&lt;/div&gt;&lt;div&gt;&lt;b&gt;&lt;font style=&quot;font-size: 16px;&quot;&gt;Offres d&#39;emploi&lt;/font&gt;&lt;/b&gt;&lt;/div&gt;" style="text;html=1;align=center;verticalAlign=middle;whiteSpace=wrap;rounded=0;" parent="1" vertex="1">
          <mxGeometry x="-413" y="-450" width="180" height="30" as="geometry" />
        </mxCell>
        <mxCell id="i0cpfaNezCLfOTg-FPlP-11" value="&lt;h1 style=&quot;margin-top: 0px;&quot;&gt;Api_data.py&lt;/h1&gt;&lt;p&gt;&#39;/france_travail&#39;: appel à l&#39;API &quot;Offres d&#39;emploi&quot; de France Travail&lt;/p&gt;&lt;p&gt;&lt;span style=&quot;white-space: pre;&quot;&gt;&#x9;&lt;/span&gt;extraction des offres d&#39;emploi en JSON&amp;nbsp;&lt;/p&gt;&lt;p&gt;&lt;font color=&quot;#ff0000&quot;&gt;&#39;/offres&#39; : Traitement des offres d&#39;emploi de API France Travail.io et du scraping de Rennes Métropole:&lt;/font&gt;&lt;/p&gt;&lt;p&gt;&lt;font color=&quot;#ff0000&quot;&gt;&lt;span style=&quot;white-space: pre;&quot;&gt;&#x9;&lt;/span&gt;Suppression des éventuels Nan&lt;br&gt;&lt;/font&gt;&lt;/p&gt;&lt;p&gt;&lt;font color=&quot;#ff0000&quot;&gt;&lt;span style=&quot;font-style: italic; white-space: pre;&quot;&gt;&#x9;&lt;/span&gt;Suppression / homogénéisation des colonnes entre les deux dataframes&lt;br&gt;&lt;/font&gt;&lt;/p&gt;&lt;p&gt;&lt;font color=&quot;#ff0000&quot;&gt;&lt;span style=&quot;white-space: pre;&quot;&gt;&#x9;&lt;/span&gt;Concaténation des deux dataframes&lt;br&gt;&lt;/font&gt;&lt;/p&gt;&lt;p&gt;&lt;font color=&quot;#ff0000&quot;&gt;&lt;span style=&quot;white-space: pre;&quot;&gt;&#x9;&lt;/span&gt;Import de la structure de la table depuis model_sql.py&lt;/font&gt;&lt;/p&gt;&lt;p&gt;&lt;font color=&quot;#ff0000&quot;&gt;&lt;span style=&quot;white-space: pre;&quot;&gt;&#x9;&lt;/span&gt;Export de la table offres_emploi dans db_pco&lt;/font&gt;&lt;/p&gt;&lt;p&gt;&lt;span style=&quot;background-color: initial;&quot;&gt;&#39;/data/contxt&#39; et &#39;/data/comp&#39;: récupèrent les données de table_monitoring_1 et table_monitoring_2&amp;nbsp;&lt;/span&gt;&lt;/p&gt;&lt;p&gt;&lt;span style=&quot;white-space: pre;&quot;&gt;&#x9;&lt;/span&gt;les envoie à &#39;/retrain&#39; de API_model&lt;/p&gt;" style="text;html=1;whiteSpace=wrap;overflow=hidden;rounded=0;fillColor=default;strokeColor=default;" parent="1" vertex="1">
          <mxGeometry x="-580" y="-1070" width="270" height="430" as="geometry" />
        </mxCell>
        <mxCell id="i0cpfaNezCLfOTg-FPlP-12" value="" style="endArrow=classic;html=1;rounded=0;" parent="1" edge="1">
          <mxGeometry width="50" height="50" relative="1" as="geometry">
            <mxPoint x="-150.82999999999998" y="-470" as="sourcePoint" />
            <mxPoint x="-150.82999999999998" y="-380.71" as="targetPoint" />
          </mxGeometry>
        </mxCell>
        <mxCell id="i0cpfaNezCLfOTg-FPlP-13" value="" style="shape=image;verticalLabelPosition=bottom;labelBackgroundColor=default;verticalAlign=top;aspect=fixed;imageAspect=0;image=data:image/png,iVBORw0KGgoAAAANSUhEUgAAAN0AAADkCAMAAAArb9FNAAAAwFBMVEX///8zZ5EAAAAuZI8mYI0qYo4XWokrY44fXYslYIwSWIggXov09PQZW4n8/Pzs8PTX19dsbGyZmZl7e3tHR0fk6u/t7e3Ly8tUfJ/i4uIwMDC5ubm/v7+csMRniajc4+qQp72rq6u4xtSNjY2ioqJAQECsvc0+bpZcXFyamprT09NlZWW0tLQ2NjZYf6F8mLMdHR3I096EhIRUVFQSEhKEnrdxkK20w9ImJiaXrMHR2uMbGxsASoBHc5nEz9sQEBA3BWk7AAAZ6UlEQVR4nNVdaWOiPBDWIhRB8Ww96m1r7Wlba6996/7/f/UKmckBAZLYw30+bVcImWQyVyaTQuHgEPQ6t1dPjWW7//D36Ojo+aHfXjbm54Pr09/u2X4Irqet9lEG7lrT+m93Mg2n9cHteXM+nzeb59OzQb1X4X7s3bbesghjaDevv7xrlfrZ+VNjfdF/eP67Y5a79k1rPh3UK/lvhi93rm76sp4+tFtXg15l0FIjjKIx+DLCgk5zmcEtjatB5oroPEkJ2xeNzheQVm9eqHyrPZeT2Gl8B2WAKzXOSUNv/kfjY8+tW5HCytyo02/Lp6vb3bI8rQQhTnv1zm5V3MiWZctcjg4y5Zccf546AQ6N/rS9Nc47Gf3tDeaJLjV6RrRNdaZNwHK66+GphLaLZWvePD8/v5o/tZYXf8Uf182OEqNdx5dKS58/Bwnalk/TUIjDzFROe53B+VwuCXfL8En8u9+6rQeJj5x2pq278OdnNuMqqNyuhdav9GjriQzQzhpW2sVUNAaZo1s/N9DQp1f88D/oaMBzsW8qw1qfpqyy5ddpphg6/AS2VN+qcHx9cavxud5tgsK5oUwLauPH7etiuMNiMdt+nEhHuHfDvvRHjQGuuXHXZ5neFTc2TZ3FBDjZDlfdYtVxXNf1S6VyueT7btXxrO5m8ZHg8B43f+cKrU/p021DgxXXfEtKW1CpVNKJrr3855VsqyiBZZeq3uVmG6Oww9bfTW7XmvTZ5HoJxh+zxfB9ssNw8bpjl1RhUbltxzklGL9OXj6LVc9xHM/zi5+jzXA7TtJZ23i2jDgk0fXuF7WULvdzdAM1Lhqx7m7fR/aOW3y/XC7bdrlUcnfs4vjd1XB7kt1kiPGwu3vZ5ifF2rXiOtXPzawWe7i28qSTR9/0vfsZ/0KPiexM1U6H4Uzs26fnltLYxXWc7maWQeLJe9GRvx014HuXk8fYYHSdLPJ2b7n+Oz8ozOLLUA23kiEIFpdeat/wYyXfKb0sxrI2P+69UvbbxaJddVcfwluv1Qz2jFByNhx9HUpequeA0vKNse9uFfg5pNEu7ihczWKc/9F11F63q8Uh/27wkjN9u1e8CVu2lX4OeRVcm+ydd6+sRhqjsDtkQ1p5yV5BIkreiufvWf64lEqv7PllNnmgqN4ocR/HuTyVhHtPG9y6eewVg+29cPTVum7uG9V7NpbUv5dpsiv4jfLHxtOnrWh3aYMrg/dtb8Pxp0IPbI9NH5UtSQOpFyM86PoGxFmXOPOVT4OJD7tbXbBOzRQGyHlJkPecUKPgFUyRLS41uYrARUapWUbvR218MuE7Lucv3PIl5U4krx0jbkD+e4kjX9QQBwweyvUTVUkrg+W9037VLo/zn3epOsG19yRSJy66wGzmfOxVzd2DuLChTzodwadCV7wtPo6SUxCcU5Ev742Is1CiGM4835RD+1voKmglj5pmqPeSU9eHv4YmAmX3CRzwz3xuym9sQjt3r0Meau0mI+5WmM6xiSrYSYMhtLbSMwHSmhux2dNhTjTKmNwk03kBf10a8ZV1Ca/Pcm0oNZQ/aQdVmMFDSdsQV1mhLkzdIt9EkLYOgqtmNvMSHBeR1QOVhYzaqCIuM5CjD9CSGXHHyEhmEkkK65iqT4VOUeYBtYCODvkL4hJDMxvDAwvxtWr0ekqHbSRPRRaUXgRWhCjnQNB1hgYUtByYvZ4Gy0Kz81VhNePSEwyWBm+mvBquOpi6yddSxxmum3w1Za8E1uRJhWBD10hg4qr7OpFCe0ydjs/8nrnkyTPOIbjm9cOJWfdQYG6+TqQgcDUVavm8WSXdAH8nijQ3eS4dGmli61O5A/qoovWa7w+VFjw3zsN/rnnLxYwxfXAhJ19ipcThYcjsJY8zcOGRjcwGI/R6n3XjELYOvmPqwuZBLwR51KEdv6S2V49fdlsjiYlD9mpmfecCGb+wzRs+mxeaoXlCLOi7faSC86Es1cxAHcdRTv888ticqgTyr9Y+/YMRG38TYxaZns4TWx5hwStK3ZK3qI2Wnb35TpkSwSrC5OW4nrBCzyl1fzj/YGxkJLog076LL0P4EyAv2z0TqQtQZJ7uIVQc8t2P72PMIjP1sgVLnLpT3iYz0uX26NsZs8gFbTI1slMRObPOU2ckMv2FCs/sjepMgUXiUmXA22Ejkw46YyVxtj9g8u4zOhnXCLe8+2OkEErk3dk3qXIKf5g/eVXyCHWBznl1Z/JRXHarr3cPYnCD3DmA4APxWN9wEufkf02GH+1y814rfwkmL12yW7C9tkY7c855CEZWMPhUX++3JuHDykudu2PwBd9wuREWJRGjigl1IITNVKUeXGCT1MBWeUIeOMLl1uAMMTOxRxp8/+KASta3UvkElBNENJsx6kx2S1/2UCa6cB6zlQLYhODUTZE6kux2YjB3uNR/ZOpQPqc5kg4x1yCE2dmfM/2Z+ZJVg2WHeU3eDo7zH7EjKylMBjGCc2o770sdWCqiij0u+a7jhJlX8ow2ddiOfz95fRyf1HY4+diCnyc3NjHWzuKZ+8pMsMqZpWL7nv3yPtt16GT8+Lq5zE81SoXl+hMxBwnxLrXYUSGQHIBnSh3oOwOp4ghC2nbsVSytrTa0DW0091JIduOxlTaJMoBMXZjQyNsqBts/yAyhHWa57kY61EPFdCoR3lDWFsGH1M12yQ4lOHVzSh3kCOh3wgIpdm/ZzmfqUNdUtvZjDZelSXWAR+k8wCqB3ddw6+CczmLBxEfAYF/RG8lXCEBl71sgzoqnbQqYSamDbQTw7sL9uzM0OEPkBdSSKEMsrps10tEDek07PHHB+HH2GmV/j2HDS2r3oTa8YQ55Zz/fvMTlPfGojB+320eO5IqW6OQSOj4ml17V9UPs1N5/pEmpM1kWhEo0YUIoeqEt3VzJWhsvXopO1Xdd13FHNG02N47Mwab5DttLx7btEs0ETyggDuCtnFIbmlqcZJNZvlgzqdsWRIwntlNiKQq200Uey4oYxOBgIuPIs8rO52o4nNyTwfEypgF+AzvslptHEs/UNzRdIaU5WOyGGsjyI2PluHhcBvLUI4IoiAvdklXFbNZx1DAIDplHgrsNc36+LjhjRT8WXeUkZeXdpclv7mi7M57Gry9OieYiKEtksF0Lkx0rMemyOmbqVSYg0Lm74CVJg3GpQdSOo27osAHFL+2mc+LgHsdCVbB4RDLubOUyp9Evi2xWZf4WsFFAiIM42DmvEl50M7wcFItbi18KvEBf+BDuUeb7SzoaFkunGoYyAbcsLtPHBJQAMOOAn0jtYDRsbgUvIk/7vGr3UbAqtonGcCiGXNzbIhkdGBmWrCAMVsOygxzhHnWGCgZC0yfs8BH7nMVyv3eeB3ZXkTPQQiBiZBRyxwkk8MPnZFyAJvQdP1t7Ck3QCIn36J5NRFOJspoKwEIAF9V2rPsiSmJQFbJJAAkAGm6NXyfEQt6RrjMGTJeMyDgbJM6ny1Bu2ScAOQbMl2YipJo+TBAOHAjLDj28BuN1HcA4SzzDUnExro2HUfY3zHBawCAGN04dQ7pCiOUZ0bM+RGhChp/uNhVweyCblVLVc8r8UwW1dYecmaTOTlcIKLmOxGUn5hrp7nWgYss2v2mvlKx0HIvk4rLhaxIGg6AxbNixA3awDknCiq5YQQWU9xx5Sh4OSWszqdRwHSQ7iUIazthxJ+z+8OtQl7qVEnUwsmqcYaXOtL9NW5GoCEEfcMdtbvYQK6jKcky4KsQF1YQmZIgktwvgWIXEHod8+lPOtwPsI1ZwReVYyGAXKwZMYaaTWg0GKfkDGirTmD4oUMvMaC8HuSgnew4FhdrcwRQlFQgo8ySDI2O2Y/qgQMUKsVY0d0oUqaOCQonvcSwSDAFWQdJ3BcaMp7NHeOCtFXXKQqCsylmu+JjaThE+nRCxwLIJ6vAFYMy5QF2L94j0nCBV6jK8TglgtyMhPdKow/xQCWNSkskfyj4m6bYaZ6IVqCizMJ4RH+g0zoSICkjMPwJxqOAJyXq5YqrUYbRHbehwmcanOkWqoFqCna1mQQT5X6jHoUWdokbAUVc9D5CSEwmRgMcYdVUIzPVljIn8CrEVLX2uqM1x1FX1DYZrYs0Cx8aJhrEAP/wtRhx46/DfWvv7qnamk6aHs5uNmSu+1JtES36eVOURBH2uFX1Aqz1PFsJkfKi2DVIoptDlVjTGdsH5SZzHBi1Iio5o7VGmeysikDrVRY0xblE/SccSrTCYovh55QIm54AW1DmTkO6T7Ecd6lExHIWrXOgh+q1LQTbyIAWyILFdx5CGlZDrFupyJs2lFYQxBtOFGUUmPuK1tgA4F0SUks7CgxBcrpLUlCqMCcV9yHJy/FGmgLKTFac65Q1pnWS4VJ8kTl2adZ/eMuQryv6TN1Zwkp8JCdJiTM+GCy9rP03ynMbpPkx5E8yupNpEc6KTouwitHjXQeNwKOw45UboPcXneEDX+M7A8uXUOZ5jAZkyLchwxms8ZcmmYfuT5yYaW9doX/GTl1Dn2AFYWkeJ6hz8r1BmS1njZe04Cc+hf6dBHT3bxHFzKb5LApFdtFPSCt4Rjfek2YmsHSfZc1opI1Xwg7gD8ChJKbeCiYl2SlqBN6LxHpLMkAk0VfImG+MeWvFEesCC24ZfiaOJu5fgofKxMAED3khTjtn6qUFxESANNGPBTmLy7Jg7CU48xE7EMmg8AkHmqH4fNzTy5s4xOrxIVx77HzHQgQw/SLdTAGQzHVKqVNNyMrZrhG4Cj+nuweDk0cIY2BBIMax5AokAGTVQr3jyVS0mRepweeqeGaaTh9JIpA6nrp6pDvhHyGaJqjEmbpOmAqxM/fMOTuxok0gdGmGgyWPFjEQc8caYYop6Cba4c6iz9TiCgZ6ZhMofwrpDAYrFwjLrrNLDMyEUdQJ+IFuPoRlvcAAOrU2oYSA4eDh1kNOXXRz0jB8BxYA7ckr2ESdMajE5BwUJBYVVpMD5MA6OLBph2aVaK4JOULQqMJsha6pRNhgdHcX0DqJSy5z1gAITKv2sC9m44J9S9BPAJck8jI1xcLMzbJi2FIXqXLY9GZ+6vJLRV7xcVTw87iukEUEahknGfJFREdmWMJihExObOkmwSERPMGf0vp3h2qBcNawGRU/Sh9zPFkJpInQ6veYpBdlAhy1mRbsCvpdRdwhZy7ROAs3KsqjI3PE4HqS8ybGfGVh5hIIya6JvnGqG4OyaH0enxrTP1gEegkUzRaFQO2SuDLAJFWDnH9M6j+pAP18egTI38DyWCgldXiuuuhBHBqyJsauUyUONaFhSKAJmuE+AMRcljEpgWTulsuQtA9ZECzll5WGkeJ+KRzhCNVwFtJTTnZquE4YC5I9iGjE6/xOpTASps1/ZHEc4y3HioRjFAteKt3cIrKmo0HGBS4UiBkL0TzoIrYz4Tm6cldDdeNn1VAisqbpUYK++UJNQgKO8ZxEIj8tEDjxc6lh4XfUSho4gNRU1FB7slSw9DDfuW52EurGFsEQ3+A24LyImcGSBPA/JHarWBT218xGv7Y0iZ+8qalVaFrriIKV4k4b6HRNwFwwcCFAd8SotlVgWkzDQGNz/zG8V0/Y2cNCJlpWXB9elqAtvqGbmMMapCOXH0YiSH5fTAq3POcaEa7jbSdwXCSqZN0AQWxP2KZU3FMpMqC24IyXo+3zFUftq7CwcXnyDNlhQn7aID/fcSI1rNgUNovxtf0VbqK3oMWUwoL/mMLonKD0UKcvCab0znS8hXouIZ+QAwBmE+JK6mnIZeYXau+2UbcawhjU547B58ZFxZ12EB7maaPMqT2PUuQLPhfC2j9FlFSuSf1ENiGNWv5+7zCIVUgMGgkeQOqAcLbDvk03B1TjBf66vUE0+H+6GNp1PXErcnfwE7qBq9brjT2lbpI3Fdvb+6eyr8iznc4i8qXT5nNRAA5UHToVa1hgrL5uKk43ONR5JuF3OGjt7SBKDl+dVzvAeQBlv9gTKH1WUAisNfL1Mt9drn3vUU/NiCqF+3sBrgPrL8GpO/kcQOVLBCXIFOqxi/9JTuOHIZNyaNjImz3uUNhgEcp4RVpeIgUC5gp1BNRHGFltnKWb7vWH1/bgqz4MQIZJSjr/l1kin44oaNsK6NU+mbOXWZpVD9O8UcJZBHRg5YGzm1WtlKyJ+qyeNdrDr67ZGNSwp5xdmK2eiQN00g7pAZ/JoweNC/GJYtPZqn573gl6ESVFjGtFceK5dLFuvaQIay0CgWJE/BUoBOCtzvJmBGbeNMHekZtvhRThY/9LAKsOklCF4x767il1rFtQ+Fpv7/5CLYP2nxAHh1+f88WYmSvyqZGw6IEIX9xlNLiiAjTpu1+3Yd9zPl81k+P4+Wb10rbCEklekZjZEOdOcdvF+iPQwOq0DUIhfy0tvHML7EnCf0cDohOpCMZPeOg7v4SvZ5Fo9y2NmGsZb0qKcKNrhz1Rr08fldBsjjt7DNsEu4UDo37+gsAVqVbkrkvByyfQANUwe6LwgrToZNhk32amVwNVW90wL/sVTcCS0XXKlQuh9rukBapw8mAL5TSr0HpeeQNoNc435oCG4svrU0TMPctJKnlBQid4SnHUFLAgJtLNlexwOhmk5Lb4WLo6vWNxwQ4qmfo1Uevo0MXdW2d05DrzPXqG3DN9lEEd7DJ0NkhYi0wVEiz+3bmMWtHDLFFbq0C/mjtS9V6tueSdDLGsnScp+1XHvJ1uxuNOAjXP2/aEgeDDkFK/kwOmCSP42k76BcEMYdaz1Y+42lYbj1/fVaHQ/ellNhrOPRNWqCqdy8+LT8BgqjYVInlVEkR/ysOzC4hl/1Zhl41jqnYALUXqXtC7BFaPtb27wHWcZRc+ElywWveluJ6IuJJbRY7cqPE5tC/2K276Sg8AuGZZ3KA68wxj/fmezZ6FhFY5BP/HmybBYFU5J+Mxw0qcuURkqiYpwrbfShdmoFfDKvx1zQpdLRd5dFfVKbbu5dEQKSpfcEtHX5k5OJbZgcMPTJrlDWQqcbGqvnXSdsmWXPSotQ8n6wF4YL1ZFL3FTqLfiGzWgLqPoXXB9Jd40f7TMuWyZAXmTCY2PyWg0ZGwWhjZwW3c2cqt+Ui26RTFooFbrQaAOiq83buus58Hp9Vmz0T+KQ+OyeKqmUwLzEfUYvXjsJq8stp1iXCQYlOInL4J90b+4uEgSBUgJsKeAXuUuvaMeppYKqPAq7KpfihSudVz2HXvFzVtgSB0a0es0kiielJkSQGVR0lcKLiQ/BePZcDW673ZHL++z2LYGUKcbWjmGZZs6YdgNXdoKnFPajilIzi3Iz9GKHjekDnMYM0nLCDNmglk3PFOfCkI4v+lwkAypEwt4y9AaqG8ux8Hxe6sTNVMZxGMojezmSQDOkDqxgHcM63la6FQVwjQ93N1JP9NM53qM6xtSBwcYyUpYtu/6b/27i3Xj6fysbrDSkojHTDhwIcwbKX/UqTdpSh1kFhDTwpwF0zGIE4U4E4OY/db0mo1npT4VdqIMqXP4If4G4kTPiSESo0k19Nxfr9cXyT0oM+os/jaOP6k93A+dxHJ7A0nZTJCRAjPqMGYUmZOZ4YS9cC2w2ZIpuV5bTk0KdbrV5sAzj5pQyjI1Reeq0X57u7hpdsTV3YlvIWRQp2tFwxEEsrexjPfoZ9B7Sqeqfx7w1Gl6QELx9V+irhDu9cpEz/o8DCdF/yTzrevfge9K7HnVTMzvwWln+nTT7j/8fX7rrxvNM+GuY6BO94QhUXcklK8UU/hxRF0jmlCXOjiJQiSzeirmT+KBUacZ8RPUnaZ3+lOIfDNi7mpGay1e3enkYv4g2ow6zUi7zas7najJD2LNqNPcJREvF1bxk38eka4gAlSTOlB34N0pnRn5cdywrmke7RW8O+Xc/J9Fg7GVJnVw2CErAeXX8cSoUy/eEgFqMmWlRv065kzg6d1XjMnHJPrxfQ7QXogsDZOL2nDPnAQzs4+U/xqmTBXrXWUmXj6VWevg9xCF/EgJDb30fTgLCpttiQKEh4EBZyRqHaKEsjPXh6zMSe/AfdGiTvB/VE8R/jR6nOupQ5zo/3xLNPMLcMqFDXTOnaNCEOqHHB44baWT5IeJOHcHEHfIQNg5SPfUKWYhKoSMukW/iztmR+kENMXbCA9UZIKDp1UzOoIjeAhfsuXzHWiZOXiQ7kA8hO/aRNgf0f47yRfUcBJQZJLt7cMM94WIjBWSF6JxRwEGVUggX5p3cRDocTJP3dDEiiOH7JiHCDjWUq8bANuu5CB1MtnucBDGa2F/SvkGBozUkqSZw4xDEzSYwlOOtaMuXx9wPIxgylaOstCEMyTBIcdUCHossqJaEw4PNw0OnjGJ3AOxorhBidWalofs2wFajLvUNB7m9pEUqm/dMd8fHY41ldwEPG9KPNfD3B9hCPsIebgqk1cdcu8d/f21biuCM6QLm9yV52PBHTJ1h7lxx6HDuddBHnUunuOtHL46IOBFX+LgTWzN0cMx639i1RVgqwQzToYZtnTJpunU039BYEboCeGD95TZs3yHnfu5PnTvgENbWEKvsqoWYYo/i1rCjuuBBthjICYV3cg5uRerkhz7njXhL2iGElJqVfp+H/3YVHys/Oj8gl1yq07xZSEeIodyBn8PNAKdAMS2+JMp49lwMpkMX5NnBfGswD+x6CKk30gUB01WPmS3LgbV0nvX7X+QODYl8ZMpAs5YlvK/w5YRaJbqPEVYdLiCEet/RaBQsLMbTwmu602Fkx3/hp4TwRPQwgODp/VBM5aam8m8h4uMFGqGt4Pd8MnDWS5t7X+Wth0qN5m0zQ87QpSPeto5z/78n9JwaejN4yWsju6eBv+mJJHidNBstB/+Hj2/rRvN2/rXK7f/AREaECqxGAxtAAAAAElFTkSuQmCC;" parent="1" vertex="1">
          <mxGeometry x="-185.5" y="-371.05" width="71" height="73.25" as="geometry" />
        </mxCell>
        <mxCell id="i0cpfaNezCLfOTg-FPlP-14" value="" style="endArrow=classic;html=1;rounded=0;" parent="1" edge="1">
          <mxGeometry width="50" height="50" relative="1" as="geometry">
            <mxPoint x="-520.37" y="-230" as="sourcePoint" />
            <mxPoint x="-520.37" y="-190" as="targetPoint" />
          </mxGeometry>
        </mxCell>
        <mxCell id="i0cpfaNezCLfOTg-FPlP-16" value="&lt;div style=&quot;forced-color-adjust: none; font-family: Consolas, &amp;quot;Courier New&amp;quot;, monospace; font-style: normal; font-variant-ligatures: normal; font-variant-caps: normal; letter-spacing: normal; orphans: 2; text-indent: 0px; text-transform: none; widows: 2; word-spacing: 0px; -webkit-text-stroke-width: 0px; white-space: pre; background-color: rgb(251, 251, 251); text-decoration-thickness: initial; text-decoration-style: initial; text-decoration-color: initial; font-size: 14px;&quot;&gt;&lt;font style=&quot;font-size: 14px;&quot;&gt;&lt;b style=&quot;&quot;&gt;table_contxt&lt;/b&gt;&lt;/font&gt;&lt;/div&gt;&lt;div style=&quot;forced-color-adjust: none; font-family: Consolas, &amp;quot;Courier New&amp;quot;, monospace; font-style: normal; font-variant-ligatures: normal; font-variant-caps: normal; letter-spacing: normal; orphans: 2; text-indent: 0px; text-transform: none; widows: 2; word-spacing: 0px; -webkit-text-stroke-width: 0px; white-space: pre; background-color: rgb(251, 251, 251); text-decoration-thickness: initial; text-decoration-style: initial; text-decoration-color: initial; font-size: 14px;&quot;&gt;&lt;b&gt;table_comp&lt;/b&gt;&lt;/div&gt;" style="text;whiteSpace=wrap;html=1;align=center;" parent="1" vertex="1">
          <mxGeometry x="-260" y="-410" width="90" height="30" as="geometry" />
        </mxCell>
        <mxCell id="i0cpfaNezCLfOTg-FPlP-17" value="" style="endArrow=classic;html=1;rounded=0;" parent="1" edge="1">
          <mxGeometry width="50" height="50" relative="1" as="geometry">
            <mxPoint x="-140.82999999999998" y="-379.29" as="sourcePoint" />
            <mxPoint x="-140.82999999999998" y="-470" as="targetPoint" />
          </mxGeometry>
        </mxCell>
        <mxCell id="i0cpfaNezCLfOTg-FPlP-18" value="" style="shape=image;verticalLabelPosition=bottom;labelBackgroundColor=default;verticalAlign=top;aspect=fixed;imageAspect=0;image=data:image/png,iVBORw0KGgoAAAANSUhEUgAAAMgAAADICAMAAACahl6sAAAAk1BMVEUFmIr////6/f3I6OU1q6H19fXw+Pg3lYwQl4oPnI7r7OxpnpnDzcxpoZzh5OPL0tLV2tmtvryetbMklYp7pqLo6ulBlo47oJZVnJbm9PMipJjQ6+m14NyHq6hYoptUuK6Q0cuBy8RAsKW4xcSluLaRrapdnZdjqaOh19JrwrrO6+hZurF6yMGt3NiArKg+oJiZ1M/u6BBUAAAJFUlEQVR4nNWd22KqOhCGwZYCKhWUUmtrV5en3a7T3u//dBtQkcMkmSSThPVf9Ur9GuaUDBnPN6PHxXI5m72HYbiJPS/elH8UyWy7nKeGvtAj/8Q0y9ehx9GqSJYL8q8lBZlmeRHzGFoKk8Mj5XeTgQT7fIVkuK1Nkk2pvp8GZLpcY1eir2JLszAEIE9brkkgFiYn8AC6IEFW6FGc9XzUfcb0QNI8osCoFJ/mzkDmJItxU3hwAnLQtAxIq2NgGSQ4kj1TXUW5orGogRwMYdQoW6VVUQHZS0c+Oa2OVkBSYhMHUeQ9mCxIkKuGcDmdnsyCZAaNo6toaxBkuraFUSmUSlxkQOwtx1mxzKLgQYKTXYxKBT4zRoMsDPtcWFFGDXJ0gVEpQYZHHEhg1cq7CnGPFwrk0cljdVWEio4YkLllbzXQkgbkYCeW85RTgPxxTVHpXWjyQpCZa4azChGJAGTyj2uCq/4VFFwCEAspO1Yr/prwQUazHpWeuSQ8kMmI1qPSivd08UBGtR6VeGvCARmJv2qL47vYIKOIH32t5UEOrn8zLGaMZ4HM3eclsFh5FwPk0XWeyNZeBiRwmrfzFcH1CQzisI4SCw7xIIizuhanExZk4fqXigQZPAAyZgM5KwK27gAQB/tXsgLMZAiSuf6VGA3j4gBkOt4I0tagB2QAMmrPe9Pg4eqD/BUPVqX+w9UDCf6OB6tSygXJXf88vAoeSDrWnBdSxgGhL9Lv77T0jfPRUcAE2ZNzeJ8TDb3ecz/7DxOEPjeJdTj+Ezzo0ZQBYqC6/aWO8cB7rM5KYBADyWL8oszxtkF8/CMIYqAK+VJeji/U559AEAOx8FWR4wdiOWpNARADFvJNkeM7OpzlAIiBPrI7JYyXHf4bbo6rAZnTc+yUOH5LZRfHAYiBnfffChgPP+W+I5r0QFJ6jo0CB8bpdpX1QAykvR/yy/FL/luKLoiBOiR+kOUQpFYMpR0QA4WhdDD8VKsh8g6IAVOXzE5knG5HURvkiRSh1k85Djmn29G+BbIlJLhIKhgiUytY6xYIfVTfyXCgUytQ0Q1kSvXzb5IJhvjUCta+AVnS/PiWJIKhmtNtK2lA6HcX/0NzKDrdtqIrSEC+CYQOhoh6FqHFBYR+8+Q7kkM+tQK1vYDQ51nIYPid6OuKCwj5pgMuGOpbeaOgBqF3vqhS/YPQMvc1CHnCuENgKKdWoPIahNxE3sQcRFZ+VVGDUGe+90IMrdQKUlSDUNdUwn3rO9rlqJSWINTVujA7oXK6bR1KEGpbF5Tqr6RWflVeghDbuiA7IUitIBUlCHHGyC3VaVIrQFEJ8kz7kbzshNjptjXxfNoP5Oxbq+xaobXwHmk/kF2q/6BLrQBlHm1z1o7JQZlaAVp6tGUuKxi+mLLyq2Ye6YEbKxhq7FohlXikjeNwMJQ9KlBRSAoCB0MDqdVQofdO+GngqbqJ1GqojUe4yQidqj983WOluXCEIF/+UAzrB6Qb9glBXjUw9GstOkvcaXAQ7KjQefg3ZQzTYV9OG2UO42FfTp+qy0FUa1EtajxR4yDbUaEy9g81DrqwT+R+4xelx4ow7BOBfKlwvFDWWkQgLwrLIWq+lBPNhulP1043LisSCt1ZT616IqpH7qWdLvWOSuiRND182k+tejqRbD5sZJ0ufWo18yh6GT/krNzENvbRIzhViB9klsPMjsqBYsv0S8bKDe2oLDyCw2mJFjNjOyqBp3+EKNFiZmwbuzpW0I6IP7AY9E63UXXQo+t/d1gO2tSqq1kJorsdjzhVr2S2nl1Wx9N6H4FsMTN4WFVpUYHoJfKofmvyDoG+6oYBrbQR1WJmfBs7rEG03oDBvA1mfhv73FSjc4qIeBvMSGrVU6bdeCYOhuYPq7z6VasKRCMkilrMjHUIdFSaSA2i3o0iehvMsNO9Kr+AqPcC8oOh0Q6BtvYXEOW8kd9iZjC16qppYFZ+WYHbYmaoDwjQugFRdMC8V6NtHhVkDYiiA+b0W1txulcFNxCl5jN2MDSeWnV0fu/tDKK0A8FsMdN7r0VayxaIUvcZKxga2LXiKQ7aIAqtNYzsxJrTvepyzcAFZCr/X4RbzOw53avmHRD5u6h2oJXbP59d+V0Q6Z1TKBhaSq06OvZAZAteqFS3lVq11dzy0oBI1onDt8GsW3mt5q6E21UJUr3+w1LdURfG4xBEygP3g6GNehbS7T6RG4jUK+297OTNVVNMCoDIJFzdYGg3tWqrdcdWC0TiGr3OvrWV5ktYCxAEX191gqELp3vRuw+DoK2kVaqbea8FqZQBgj1haAVD+6lVS+1bqXpXt+EqxSYYOkitWurcE9YDQWVcm2swdJFatdSdP9a73hCTBF8OEqztWjG08nkgT2J7v5TqZt9rQWjOBUG44HMwtFzPDtW/QX5wKaswna9KdfcNrlF/FtwARHR5ZrVvbXXXCtZgvtXw4mLBw/Vm5b0WkYajCYCrpLlb2vcuU6tG0XCABwDCvcX/0857LQIBt/lD163zDn5cplaNoEkR4AX4NA2bxhRCvxkECQxcdUgneLgCPFthxMMuBiGdC2Li1kYqMWbVsgap0F/wRKSE8YOZo21GOaJncKU3AsSnfNOSTOwBUGyQYGTjuCqt2NMqOXOsAuJLFPQVc6Zu8iaLTUc2iAQaO4ICGdma8NZDNH1vTMNhGNOScCD+dDRrEgsmUYtGbY7Fd3H8FQ7E6Wzgm56FU4IR42hHMMpjLZ7bjBkQ7DzvYuVXsiD+3m1Wz8h3FUCcDp/GjZ5GgjiZMn8Wchg4FqQ0FDePF2LqtCSInzoo5FeMKY5aIH5g3Q+vBWOaFUF8f2HV5qPB/i4ZiNVFWff32ylBSkuxlHutcE5XHcT3MwvuK0LFQE0QP/hjGiWRMHINkLJKSUye9LwLKg9CkDJnMRbpi8HIRqMg5arkJh6wk9JqaIGUKFtilChH5lXEIL4/ORA649VRXD2ZAimV0jxhcSIbN6hBSu3XuizFUmsxqEBK7RPlLCxaZ/oUPhVIqcVWwV7CHJ+nC0QGUirY5wX+KQvzTCGAM0UJUis9CGmiYrZUDHtskYPUmiyy5SwJw04mE4fh++x4WJCYxED/A51Gh3x5q6kyAAAAAElFTkSuQmCC;" parent="1" vertex="1">
          <mxGeometry x="70" y="-560.94" width="80" height="80" as="geometry" />
        </mxCell>
        <mxCell id="i0cpfaNezCLfOTg-FPlP-19" value="&lt;font size=&quot;1&quot;&gt;&lt;b style=&quot;font-size: 16px;&quot;&gt;API_model&lt;/b&gt;&lt;/font&gt;" style="text;html=1;align=center;verticalAlign=middle;resizable=0;points=[];autosize=1;strokeColor=none;fillColor=none;" parent="1" vertex="1">
          <mxGeometry x="50" y="-595.94" width="110" height="30" as="geometry" />
        </mxCell>
        <mxCell id="i0cpfaNezCLfOTg-FPlP-21" value="&lt;font style=&quot;font-size: 20px;&quot;&gt;&lt;b&gt;&lt;i&gt;Dataset entrainement / test des modèles&lt;/i&gt;&lt;/b&gt;&lt;/font&gt;" style="text;html=1;align=center;verticalAlign=middle;whiteSpace=wrap;rounded=0;" parent="1" vertex="1">
          <mxGeometry x="-597.5" y="-349.43" width="167.5" height="30" as="geometry" />
        </mxCell>
        <mxCell id="i0cpfaNezCLfOTg-FPlP-24" value="" style="shape=image;verticalLabelPosition=bottom;labelBackgroundColor=default;verticalAlign=top;aspect=fixed;imageAspect=0;image=data:image/png,iVBORw0KGgoAAAANSUhEUgAAAWoAAACLCAMAAAB/aSNCAAAAwFBMVEX///8Bk+EAAABDyOwAjuAAkOAAjN/29vYAi9/o6OhBqOeEhITc3Nx9fX0AlOHj9Pyp1/Opqan4/f51vezt+P3y+v4xxeu02vTT6vnM5/il0/L0/P7x8fE3Nzdis+lOrug5pOaNxO6RkZFFRUXA3vVZzu4jnuRwuevc8PsemuODw+673PUmJiYRERHO8Pql4vXAwMCenp571vFUVFSay/BeXl5SzO266fdvb2/Ly8uT3fMAgt3b9PswMDCysrKE2fLbpToqAAAOBklEQVR4nO1d6WLavBIFarsuTSFlCVubQEMAk7ZpEtp0u+37v9VlC54zGknWFygO6PxLELY4Hs+m0ahQeBZoXs/Oy0mlWKwko/L5oFXd94QOFNXZKI7CsLhGGIZRXJnse1YHiPZ5FGxo3qBS2/e8Dg7V80jleS7ZF/ue2MGhW5GILhaD7r5ndmCojSOR6LlUt/c9t8NCs6xjuljZ99wOC82+rDwWQn2+78kdFspapr2q3i7OAy3Txch71VvEaaxn2qvqbaIhetNRHBeTShyP9z29Q8K5QnUYJYNhY/nh0Lt620NHcfOii86+J3WYuGBCHVaG+57SgaLNme439z2lQ0U9ZEz7PN6O0EtQqJPGvmd0sBhi9BJ5g7gzoP4IvRe9O2CeKfQLiTvDpOKF+h9hCPFL5EPD3WFK9Yd39HYJCBXD6b6nc8Bojryn948wAf/DFr6M4hS/jvyxvCxRZPjCNQ1gwrJ5cJN6K5XeVmb8bOFMNVrFunlwJ8z+WA4ezlTD8m1kWbDtklfg6C2oK9UNyDUFlgVbuloTtLYz42cLV6onkGuyWkX6Bhx7BO9K9SmNFW3qF2L40ZFbRWeq6y5WkaZbfcmTK9VoFS3ql3orwWw7E36+cKQarWJosYr0ufi40pHqNqT1LFYRnkvl6JfFHKmeucSKbQhgjj4F6Ej12CWt1yWvgM2CHgHcqK7BYld0bR5Nn0t0uq0ZP1sYqR6XOYqAvvJ5mVbf0Odis6BHACPVlZADqS4qn4ej9NtVCGCO3iqaqTYVUcugKpkWUfrtdWaqJ+5U06Bm4NN6ABPVQ+0WLr1UEz1B03qRL1U1Ut017HfRME08bViErBx7Wq9gpnqg38Slo5roCboIGfb/6Y/KJ0xUq9swbIhJoqNFreLRp/UKZqpHzlRXiFdN0622hbGjgIlqd1VNXTqa1vObzgtGqhu/IgQT8khBTHLSkNbz1e4FI9W1KsMpiHmFfzwHyd7RdGumuoReL4+5v5dfPnz9OGfm0+Wbt6/EESe3by4/rUbcnhgvZYoWGZwyqLPMAUzt883d1dkS3+5+PuzrBXhL8EjZl69Az/vbd+xLJ69hQOnjB/l5LOBCNXgk4SD7YEMAU3u4m1P8YoP5H1c3Jrbb3VMCzYUb3dYcw2Gn02m325r9Z53T+ZjrxaD5mEaB8nC7HPDlfUnBLb3CyXd1QOkNfxyPcKEaS0DM8V8Pqih1ab3ezTdCc0r33WfthVsxNQ59edB4PigI1oN+aVY1F8ZmPSj+1VaofoUSvZHsVEncigNKn77I93OgugkpEUtWtEqVTaIZ9PBCIHrF9t1vzXc6YJxHon6fZNmt02XL+YzqH59kIkulNZMvJZFe4YN4QweqMSViaY/Qstcl/L7SEb0k+6dsJdt0EsVEHISxl8aq0Hd00VYDqf6i5bFU+rH4+st7w4g30g0dqEaraMmK2usSbgw8L+VaLtFp4FYcaRDfAi+KvhLMUh7evjLwWCotTJ+sXh4hybUD1SArtrIOurcglOoS/ppEes70je7KYDFiyeTxBjyJlOuiofCyVwzl4fZ/RiIvC4XXxgFryUc4UO1kFaGwWvUoandGps++6VQ128sXCxbjmud+JbNyrSg4yoNWT6/x54dlQOnjS+WW2alugFW0FDu2yWAprWdh+q8hmoGXSyrkUVI3kljQBxYv0wY28oBIwQ1kUFVIdqqdrCKYd7UuQWWaOtdnD6ZLTy2lbF1lQUNQdkI1oQvVWaCIdXaqnawirUsIlBqGmzPO89XPh8936z+u6AszVhJVQKXQ/IwTLXp7UOK2uoVM2Mf7+0sLp+/v7yUhf8vvmZ3qCxerODLVJXxGps+uHpb64u/qr59kZDuJFPcBugmo85iq+UhVLmDjyNoVFdj6vjZu7/5oFcaHdURz8oF/cslvmp1qmL1lrbBJJY/rmh4j+jEyXEk1jRO7UVgMuPppG9MDTWHpOVRKu6nYBOv3RmHxnqYz/ohEfydaQglpeICemWq0irE5KTQ01SWAm0ecuruFM02u27xY3pJbviqwyHXDWFrO4N5eWxBqhWoWhpwITDMdwQT7D5taZqqdrOLAEMD8BvVBhPjqDJzpTrK6iBLsUT+SP8eJuMjPt+ycS6sWXGD5b1Ljx1s+BOWa+yCZqXayivCCMl1zR5mm4nYFymOwIS1mF6CJLP4ceAOvFZi6E4WaUf1J/VFcQSgPo/AOPv/KPs1MtZNVpIIXoK6hQn0GgcpfqlFJ00QjnSP4qCOv0bHpjsVIFnkUsnNchQiZaYghP7IPM1MNqQeLVYSyKCSj8DOj/0wSGTE6fLAdBzUZ8eGSPuETTOuEfJ1kwkpWJtDrk1JKJ6ZrZKUakqJy6iEF3QbGDRdh+s54kdRrY4s4oMoi6guSaDuYEXuB+q4up2eACDEN+gaGCFkOdhH2WVaqsTeWLgEt/BhWWE186jOzF1OraG4Hu9ypK0Srv5MmSYWEfaKbqAdDn4Gdx7egHsTFlksDm1mpRqtoqaChAQxLCKX6A2IV8ZaRfA1YHKDKhWQDohkMowkvGuPQnCMQoSaL5oAc07045+8GNrNS7WIVa1RVR/gZsYm2Mr7e5pYYflchCZJajSZJPY6aUN5NnlVDI9TGd38F0MSq/7HAa8NFslKNVtG8Ma6jr0vopfrjyniNBTaeAnuLNPkmUmS8rKYizJM0DC1FDujvcKRaXGjZBtW4Wheb9zBDXQJGzqmq1uf+N0itK3oxNHGeCjxZngmXiRPijqSvIU2koxjkhWq0iiPtuCWosmFu4UNKtX5R/BFpLgC1UFmMRevE/ViKOjHOqbc3I28cCHVuqB6AVbT01gOzhW5hmj49s3cHTn2QGNJ7EII8vjXkvVuvRZBs60Yp18gbwXRbXqh2sYpVahWZW0gCGHvZWG3jycRgQmfSajzJa6xTAdQFeczt0SULZnHyQjWsK1qsYssQwKRUf8tQobfRFOjttYS8IQnJH/9Fo8JiQ/kdPN7PCdUw62JofvehLoGtkjhJNaEapBpStP3V/8hrt3GWCa/rZ0XD2JgJTE6oBqto220BAQxbryIRjJMCgcASMqUrDUXYTz1D6oKsfEKDUOeFatgVY7GKNXgs7EPigdgrTolZxP/Hyh1ISJ4mp8fc22sZhDovVLtYRZrIVESHUG1cFl8iTRCylQgymZVzQhQDEQRiA1f/Je+bWl2WD6prWFFktopdfQBDs9XWFAi5El+JgCKOKs4vSt+WITOVQ/I2qD8iH1Q7WUUorFbKNFKz+M14lQU27xJ/YnCLNsQluu18i/ixbxLqnFAN64q2Psr0DVBXe6/SdJMtXGxs7sq7YQwwHG1Sl4fmDFA+qGYT3sx8UD11sIqQLVHz2qTaxrwyQLOdMXu4EIi0ICQHO0J089zbKxuFOidUo1U070G0NHwjS4tn+hLIBVKhVhaN6eJA0IWyCRhHFE103TYLdT6oxoNguKvMYCusThPWFm2dPl+lQw4UX84ooSgGJIIPumSYuOCfC6rRKlpai9kavhENwpwQ1BJdQic3Dj1KNb0hU1j0DeuT7KmYWcgF1RgrmluLQWF1UfBVmqm7B3WQhSrwRJYXAnUvGUyIUMgcHmzgahbqfFDt0rIaG75JIx5jcybTrZCGhLB+qL5GsH0svV+fj5M3yculFbmg2sUqWgqr52isiH4B0WJvcSZ6+meLiqqwQVIuYlJL1hNpmGYbUh6oZgc5mK0iRBdyw7eFtoY6yPm70A+Iom3U6fOSOgTXJaoFvSC22dDsLckD1WgVLTvzs3SsZnWQc09hqXDXVDe7SWAjZiYp4UA1dtI43Y7tPFDtcpADNHxLNBF89QoCxcb6oO7FimWjUweiRfWBKbrNzITiFGmcbsNUHqh2iRU75gBmDfBhHot7i8n0vJ+wVn6BXPKqHs4r9xxpq+O0spIHqsEGWfrVQJWFZcP/+hspuULLRM1RsA11b4AoAzV1nHYXYA6odrKKF5YAhqNRNrXSCbU9JwWpFg2D4oLoFWAOqHY53ghDePs6y1CRY3isfW1pj0JhILccUbxC/dbWHFDdcrCKEMDYD62rG9tTRgazwPc269IFvH+dYV00B1S7xIqmugQF1cSoPEJTG2a+u0hnF06ZpjHs184B1WgVzW2onRq+1WZFLddhcGFUP1xadX4lc1VMi/37p7qJBzmYrSJd9LOdhFRYhIWVQIz7wrKlhyrb3azNFvRQRZmam++fatyZYbaKVeeGb9XZKES2wzBKzq2+C27tC+VmNwtg95C+4ZL7p9rFKnbitGd4lPEgulp7Wk6CIFh9KaqMxtcZnhH2ew70ag3PsTG9K/un2sUqDsf1FA6HC1Qnrdm0Xp9Ou51qtmZ7taBY2aDY1w+chtnGFQqvKOxD5L5j70wXsd0BrWJuTpeDToqGaolmxnE5gJNV9HgKqi7HG3k8BZCGPPozV3cKp6NwPZ4CdJYsxxt5PAFNDOa8VdwdMF2THPuZq7sEeNXeKu4Q2J/HH1m0Q2Ba2NKc0+MJ4AvO/siinaGP6U2vqneGesb8u8dTMWPqI/QJkB1hypn253DtBlWlFsayMcPjv2FSV2u6/JGr20NtMGzUCo3J9WDEj+sq8uYFHk9CJ47iBSKpuivykeIWMTXUz4WWdk0eTpD38qyp9ie+bxETA9M++7FVGM53NpS0ePwHKHW0G+UR5qb64zAAG4aA6SRD9b+HA641m4SDc5/62DLEoyfCaOQXybeNprBHOIxHp3k8GviZY1JZRIlkX1sUV+peSe8G1evZ+GKULKxj0r8YtI4saPk/45AJR+M6qF8AAAAASUVORK5CYII=;" parent="1" vertex="1">
          <mxGeometry x="380" y="-43" width="112" height="43.01" as="geometry" />
        </mxCell>
        <mxCell id="i0cpfaNezCLfOTg-FPlP-31" value="" style="shape=image;verticalLabelPosition=bottom;labelBackgroundColor=default;verticalAlign=top;aspect=fixed;imageAspect=0;image=data:image/png,iVBORw0KGgoAAAANSUhEUgAAAQMAAADCCAMAAAB6zFdcAAAAilBMVEX///8AAAD8/PwEBATY2Ni/v7/m5ubw8PD4+PjLy8ve3t729vYqKirn5+fa2trh4eGpqal8fHyTk5O1tbXFxcVVVVWgoKCvr6/Pz891dXWamppKSkqKioo1NTVYWFgvLy9xcXFAQEAcHByGhoZgYGAjIyM7OzslJSUUFBRNTU1oaGgWFhZycnJXV1eS04l/AAARG0lEQVR4nO1dh3bisBLVyDZuGPeCqQbTnM3//96bkVwJ7HtvE5YN8T0nCbhK16PRNDmMjRgxYsSIESNGjBgxYsSIESNGjBgxYsSIESNGjBgxYsSIESNGjBgxYsSIESOeCV7//GhYmfXsJjwVnLm7reYf9R8sCZzBHP/4xbMb8kRwA8wocxOwn92S54Gz4xIIP3gsGExVdkjB9tkNeSI4ZxqJQfjshjwZM+RgXn/mP3JMYK+PSMLa85Kln9g/kAOOFKRwKgHO7wekwn92g54BzhLsP6rFLJv/VA7sEhRFwR8xQ4L27PY8Ac4bDJGKzfwn6UYflKb3jheLv1Wuuc9u1l+FTb2WA0HHb3lDif+TbGe/loLi6KN+9JqvsPhBMQXyFnZ7lH6+QH2Y1AygZOjPbtnfAmcrpCBZU7d3EOhLmPrespaMhPMfoRtz6JQidZsiSnspCgDT7LUHBHVOj6RxILD2TN2gWdENaKMiduwNcexrMoG9ijbt8y+TMIrMCYvnuCPQyp5s+KnzqiFXTt6iFAE/9eaSjnhOdmIAJ/z8tq78wEvDNNmX0bNb+xhwaR0dV3C+DOxELYPpNjH1dI3DwBQCsIbz0n1BYeCkDf0oUJQBA7Cba7rYXcKcVUtDfiR7wXx2k78a9ExTP5b6n1wmaRd5DrMdoQaRoq02EUfqtSV5fC3TERW9u2gefS0JVWgzL66QCb07DA/kheSgnFXZM9v81UCjGKA3DOJExa0zT6Mgaz3wa/tocioC/yAmT3v7UrZj3lEQmBOcJGzVn3W5psY+dMMKKvpgBThXrMrqhRSjKbt/qjagRDQyTDuDqzSLnQU0CmBGX7DrlucH1gtxQAZAkaJkk5DvsWNr8Nrucd3Sku1RKMlkAzIv3ZiKL8IBF2KQoqCrDFWggg9X9y6UYeDRvJiuzkJGzu9LVA/OBF6l2wNw8pc1NAcrlxnkIwoRCOc8aeNqp8QVPcenf3ae3d7HwIcDzfqGcIZmmZTwUKltham/g1wOABols2e39jHYQ0EZNvH802Q+1ZmenIWlQJIQ4ISYUnxZ6IDXMgo6YP/RQFAgwc9C8slleFvhlpM6m8m+i7GQuexVHSbseKjBbg3TfF+biQqsiIjT0Ap6S/niT7OxyKSjfUafioFqPkwloxCEsA7qyKHk4EwCwbjRO2wGUfqW/NEdsOXG/rPpbHsLMPnUFX4DXnsKCihNHGnLHEfaAR3xHmghLP/k+viTnqHJ2PzZBbgI8D6uXKwNoSsyiBJMqasWzYO9MOo+XmpoQt1oItcy3e6OxE8GQnczc8apB9ZSWhl/PJCYJaOaD+Qga92lA9IQJ8aEinG4rdPtWw6WMLdW1f3z3w6Hw+l0Ohze3s5tAIJ26407+scK1Wwe0MM44GxXj4KA3CfPzRb4CZ9mzuxDV4Kg7iYsvdy6gNEK0jVE4poGsjA3/nhinVxqVfXAtN8e6oiyD35FjjEAuY3p3DD1noQTDzfO7sUfytxLkjxY+pXckMvdjsxdfsK4sC7wUA44i6j3Qty8EwVUTyR1nIUATjPKbZ0+WXDrfIKIw556W501XU7uZ2xKu9VPNJGv4LFyYEBVC28hx90mFHrAOzlNDMWe3eVAtDGlszeDjatWC1Jph/IZDhgFuOGBcyOiiyZjU2PhGOmzwI/0RpVzPjPISrnLgUonT/tbSFWazZfsc3KASB/NQS6V1l6lChzpF+lQOtF7Wo8FHNOh8LPvBdCcKw4Iq04DqJ/mQHs0B5nkABZzOGmkBp3C1UilqV1IzTboYdybnSYfOeCzeXv27JM68S9wYOO8iAMucM/oRNKj11xY6ulx0bMPiIP93X7c4oB3uUn13+eALWCFhsgpKGVLA30dTtfYdPfKSTnds/VucNDHF3HwwHlBBJNIH5BJevDWaVaU4NaRkwHK4M4lXoCDqMkvUVz1fbHCO6ZhOqn9BV0XZOCf4l7J4kcOBux9Bw7Iphcz8FShHEJZRUfH1jXdEF2xIuah1xyFJsR3LjHkAC84jDz++xxQFU4RR9JAWpBxC3KrGomAgTFh89Jmpmcu7hgIHzg4DGfCb8ABaXxnbgoONNEhx440xvXtfiuFusQJg6WMgXE7ljPggHPnKkkjOBgmq6Wq0fWrlXRys607dveNIDi4MTN/YWQpgtCzdzKCQLM5Ay23bfVi1iGDX3ARcnHvUUyGtrIJb4PdNzjAjUFB97toAw7QWvEp7QPno691gayOg3SZpJqZZZk6m6lfufxMh51tJtJDLdHFYSTLxtSr5tLxyVETcHas7tUwD+TAdmMYetk3OAhXrYHerJeQdVExdOju1nEw7e2/GdT5Yywgmbl01W0Mjgns4LLJObMBW4TuEp+QA8QvrFz+ZizAIl6sdrJxw2jLkAOUcJUYKJLlVIy/NrqCylQ8hSDZC080v8GB61VtjnjzpYFuD85OJC+MNoClr11XgR3F2XYmE+saJkxNnOWdktUJDKD8ngMq/1RALCFcyoPbi1Kdi9P2umyv0HHA6+hfZVJpQD/s+1mgFoskB5tip+M8eaTGlRyWtbh5eD8dB/rt02s5WBTHzUH4HtvB7gEHImDRdpXyuUXLAV2nETX63F6hzwFdrfr6tB9n77BgIvqzD1C5BZDCDkrIdC7DacL4d9CzuJ1uG+hEZ3G9Nu5KH3gguipAZsmq3aN1O0Q6eNbfUc8LETxmaYVY0TbRoA79RSStfnqcWu30RNEiw2NSRX5ArRO5dJT033LAub6Bc2N1h7jn2B5I396aw1iYtKLecYAt2zmPKRXlNCv2NHUIN7IJDtu+3zz7ylb2b+mDvv7q4hCp4KDpkQghr9SPC0cEB5T6Q11wfFgZEDpMdtmQgDJaQl5+JFuDm1roioOop80I1xz0OugN9IEuI8jlh3hLLQc6DVf7YTk3F36VZjPrvBMb2n5RP4/unhxuZv2uODC2QydbcHA9huVlfMFBC78Oo1+ujpbxA3UnB9WDOOAsjj3vUqdd7ewXypwGtQ3Xk8x4+z9wwG75jcNe0RUNNRXl0Ive5nWT9pyGH2zlldRXtyL8XwLOTZicmnQJ+jdOHkxoniLl5XQDwINbSz+vOeD/lQNmJXFtSww4oDwPSB6KXtmX1jc/Hrjo8OBnTZHmQWywIWGcnBdXjk8uLMZb89L/EkNpzxOVLoUYcoFGeYjF4GDnl2CGWtKpBTllrdSJ+Gs+bAlBCKxoSNiKwuycxE6PJBGi9SeulDdO/X84wOZnZPQfQ4PJ2fBy5Tk6PtQ5ynarkAO6s3Rq7Icto4A8lQwUaMKuqM1emS8nsHMrSQJn5cy/FWC/FVvvQXDQqckU6sIXJueF1sFqIvnMXsrx0J4jOFCJoAI+SM5XIgWnP+xWaNVU6LjgI1NXNfFmZsCNoKIjlvvcvfCQAxFp39cdJg6a6BTnnS51LsRBO/J7PlOtEh4lCbBMOgoo5xRZ8oO6aJ6VPgXlo4ng/l4OZgMOaLzDrO7CgAN93YRJ0CilWeC94aRnK3sgxeghHFCa1TpSl1dz6KpSUFbjvdY8OEpFXQsCl1ma6Z1mCS+H5Lp+dMItUWu7w5M9lRNJBCveWiRJ3/Wq7UQm11BQw9KPYe+vweEiPUDKNOCN3sIl+XULbVfU0TGuzzaNy9frJFW2wfkuBxldLWjaLObEXO6RfrDLdDH9RsLRqK+Sd0qjXmwZyXNsWeSRPIIDSjBBaMrJeUNBjAzv6oR1XYkujzF1oaAHt+cyuHPbn2J1lKCd6WT9Gw0NO6uk/q+T1GinwrrOJhnT5p4EwZsIOFG9g2zQr4f4DZxdQJezzyHcnlS0zHkYY8MOi7IJC+csCLHBRledoVvrRovuPfPahOLcqReKQuVltHMiWd4dj4qs/yGcKVIpy3qq1FTNfApdGZdV225lmjnytS1ynM6T5Ot54Co+4wo2RPsGVhNkJaBnuAvb1RzYIiMBp+upCwN8iDSZ/b1CuGkGlp3YqkLBYG/ESLsKR6X1pfL+xoza4LVfgy/XjRwFNTXQbS7o+mSsTuKVeFKyrqYZgV4X9mD6pfKDxPO8JNj/qsoPKclsE2/nyyDP88CvLHGTTFQ8HAOhV+Zw9ptsquNVdUASTsv2EaNLuyvK7Xzu+7/KmVCfFHo5rxZx5TxgfrBR4/nSSkPbVOdsUhcb0eKdthyBzduZ+0MThhvuRPwM1+3v4INdapap+t3cAW02KPP3OIQozc3bINIykok4Ibqrfc2BXXKjZ/ryJn4k8+1Dbc2bfTIex9tzWr9qcMKgzvHqGrz93G55zDp09KFxjM1rgfRIUwW1VHQOXjpDql73BRmUbUSDrDGPlNwgd1ZZULmaUuc0xBNcKK+1xrEPUrobvfcegJB8u8CR7r5eH6MhVcWjfLd/ASWYbj150a/1DCf4jWYst52dY6vIzCst77sC10FhzRR1XiIB5bmgCpUs7CzBKsIp615ZyivAhCSsQzmwLSBfgJ8F+I2WvNdKfobDouz8oBdEAPq+1giL/fxCJTqxsBMuZuPm++jCV+jGvCwH7HJkhjBphbxPvCko2hwCM0HFQPux50v8vaDs0auyYFPf34ViTEQf3eXZ0o8Qzswg7nLlK3JovzL3+++AKgSwc7N6OPiZo1vowee6gfbSqvVvKYm+Pdz1mL8/ErSUvCbI3aBdoiLWPOLP+jKVsb1XHBCcbdEatpZiOPjkzKMDuYuypsw/r5c+LqiaQn9JCsghidEimjU2c/3r1HBQh7k4qyjw/LKvocVn7IlQYLPsEQrUgcUZIieaiwIlIQoehcLKB5UEPBvceEdzuAsD+fOTlV38AjdOpE6QloLud3LxakBF9wvmTI82cihMC3qLGIUXfV31i+lGZXVSxAnOMiVz+zpt5OU7gqKJPv7ZQh80OcSJlk0cp+0dN1FvxtbNnnKWVau59V05oBBuqYuUGxyFyK8r6NzqoD2MQq0RQHVzwQ56XbvqO5sRMwXKkEKYZSVCjBUkTUJufaUGKYdchPwqDibfrXWzbOGbwGA8bp98LMrW3rbCVPKt+FoDyEoJn1IRHQlL4Ww9buH+48FlIBv7Lkoj6rUeCog39PfMAhnttVYgeux37FTxTiTNjG+tGWWaBIfEpbcQUrlUG4DNSYYQPM4cV8QXo+1xU5GcLHKRVJLRWRmJryPC35IHzowtvO0rFxWBterZjeK3gx21RCpIWcq60jZdtPFl7payzLxRCEb+m1v90zCnp9BPnD3UWfnOkyrU7RqJoViTWCZMlKVrGOKNPI7N0jR4toJVEGphEiyTb/euoQTW4S9vsrzqnSCjKKoKXcnVJlxAINLo3BKv6l5olquGiV+cFKU+diP5OVNx9/cigQub2A+DRE0OxbLtfReCt3S2IOfhSO8Vw84ZNEtoEzWzaH0om1QQCwtjdYS5qmZaWn5yjdNzMNlCnHoqi3BIFNOagnMCFzFv+u8wN5XcE+vnN0VfWM6bwfKTFp9aA/0UUNncHs6ULtbzdWKmFa08OstlkXIxVAWnZb6vwhvvxlA+bro2sr4DRNQEh3xMLzvKtr7p6Gqwa3uHVuRUjIXl9k7v27wNvMXz9KHrlx8M3Sug1HQUhs3bOth+7OVtdLvew++lDD9A2Dg6arTz3MusmZn7cRNmvP4nFtcovcxxw7XJHpc3/8uwvC0azEq5DFVHn1j0RiXH21fbfZCkHnoJp3IgFpf09YLw8im6US7fSxzPg1QzZxNd151ZpuU+HOvY48JPcs/k39hX+C3aXhmuGqXBfhsfm2FxjCs/SCPrdasURtxFo+mEc/iaoj9ixIgRI0aMGDFixIgRI0aMGDFixIgRI0aMGDFixIgRI0aMGDFixIgRI0b8ePwHRpnXvsv2mq8AAAAASUVORK5CYII=;" parent="1" vertex="1">
          <mxGeometry x="380" y="-571.8700000000001" width="136" height="101.87" as="geometry" />
        </mxCell>
        <mxCell id="i0cpfaNezCLfOTg-FPlP-33" value="&lt;font size=&quot;1&quot;&gt;&lt;b style=&quot;font-size: 16px;&quot;&gt;APP&lt;/b&gt;&lt;/font&gt;" style="text;html=1;align=center;verticalAlign=middle;resizable=0;points=[];autosize=1;strokeColor=none;fillColor=none;" parent="1" vertex="1">
          <mxGeometry x="415" y="-601.87" width="60" height="30" as="geometry" />
        </mxCell>
        <mxCell id="i0cpfaNezCLfOTg-FPlP-34" value="" style="shape=image;verticalLabelPosition=bottom;labelBackgroundColor=default;verticalAlign=top;aspect=fixed;imageAspect=0;image=data:image/jpeg,/9j/4AAQSkZJRgABAQAAAQABAAD/2wCEAAkGBxMSEhUSExMVFRUXFxYVFhUXFR0gGxcXGhUWFhgVFRcYHSggGBolGxoYITEhJikrLi4uFx8zODMuNygtLisBCgoKDg0OGxAQGzUmICYuMC8tLy0tLy01LS0tLS8tLS8tLy8tLS0tLS0tLS0tLS0tLS0tLS0tLS0tLS0tLS0tLf/AABEIAHABwgMBEQACEQEDEQH/xAAbAAEAAgMBAQAAAAAAAAAAAAAABAUBAwYCB//EAE8QAAIBAwIEAgYEBgwNBQAAAAECAwAEERIhBQYTMUFRBxQiYXGBIzKRoTNCUnKTshclNDVDVGJ0gpKiwRUWJFNjc7GztMLS4fBEg9Hi8f/EABoBAQADAQEBAAAAAAAAAAAAAAACAwQBBQb/xAA6EQACAQIEAwQIBQUAAgMAAAAAAQIDEQQSITFBUXEFE2GBFCIyM5GhscEVI1LR8DRCcuHxJIJEYsL/2gAMAwEAAhEDEQA/APuNAKAUAoBQCgFAKAUAoBQCgFAKAUAoBQCgFAKAUAoBQCgFAKAUAoBQCgFAKAUAoBQCgFAKAUAoBQCgFAKAUAoBQCgFAKAUAoBQCgFAKAUAoBQCgFAKAUAoBQCgFAKAUAoBQCgFAKAUAoBQCgFAKAUAoBQCgFAKAUAoBQGFYHsc0FzNAKAUAoDWZ1DBSy6j2XIyfgO9ds7XOZlexsrh0UAoBQCgFAKAUAoBQGuSdVIDMoJ2AJAyfIZ711JvY45JbmyuHRQCgFAKAUAoBQCgFAKAUAoBQCgFAKAUAoBQCgFAKAUAoBQHOc+zslplZGjJkhBZGKkKZAD7QO21asHFSq6q+j+hlxknGno7ar6meC2UAlDRXs07AE6GuzIMHbJTJ8+/wrlWc3G0oJf+tjtKMFK8Zt+dyx4XxdZ0kdVYCOSSMg4yTGcEjB7VVUpODSfGz+JZCqpptcL/ACIEvNkK2sV2yuI5WVQMDUuS27AHsNJ7ZNWrDTdR01uiuWKjGmqjWjPUnMuiHqzW80RLrHFEdJeVmGVChTse+xO2DXFh80ssZJ83wQeIyxzSTXJczNnzHmZYJ4JLd5ATHrKlX0jJAZCQGA3xSVC0HOMk0t7f7OxxHrKEotN7GqTmnMksUNtNNJExVwukAAAe1rZsb7gDudJ2rvo1oqUpJJ7EXifWcYxbaN8fM8BtfW/bCZ06NPt69Wnp6fytW339qi8NPvO74/K29ySxMO77z/t+Ri05gJlSGa3kgaXPSLlCHIGSpKMdLY3waSoeq5RknbcRr+soyi1fY88Q5hkj6jCznaOPOqTKDZe7IjNqZffiuwoKVlnV3w1OTryjd5HZGziHMsMMcEpDsk5ATQuSdSF19nuSdhgeJFchh5zlKK3W52eJhCMZPZ7GOG8wdSb1eSCSCQp1ED6SHQHBwUJGR5UnQywzxaavbQQr5p5JRae5Y8Tv0t4nmkOEQZJ+4AeZJwPnVVODnJRjuy2pOMIuUtkV/DOOPK6q9pPCHBKO2kjYasPpJMZI8DVtSioptSTsVU6zk1eLVyq5QuzFY6lieU9aYBIwCSTMw8SAB5kmrsTFSrWbtovoVYebjRva+r+pa8O48Xm9XlgkgkKGRQxVgyg4OGQkZGe1Uzo2hnjJNbfy5dCveeSSszxacwtK/wBHbSvD1DF1gUxkNpLBC2ooD448DXZUFFetJXte2v7WORruT9WLte19Bc8wt1ZI4baWfpYErIUAUkatKh2Bc48BRUFlUpSSvtv9g67zOMYt23MXU6C+QfTGT1d2VAw6ZUMO6k/Xz2PauRUnRe1rrr/wSce9W97fzzKLljTLdXMklo5cztiZhGTAFiXEerUWDeHs5HtDetOIvGnCMZaW21116fUzULSqSlKPHfTTQsuEccgg4fDMOu6MSkayENNI7SMAmxwTkHHuFVVKM51nHS/G2yVi2nWhCipK9uHNu5PteOORJ1LSeNkQyBcK2sD8VChIL/ydu4quVFK2WSd/l1LY1m73i1b5mmPmRhJGk9rLAJW0RuzIQWwSFYIxKk48ak8OnFuEk7b7/sRWIaklKLV9iFb8wT+vTRGCZkVYwEHS9jLMDKTqyVI37k7dhU5UIdypZlfXn8NiuNeffOOV205E7h93EtzfHVKDH0mlMjZjUdIsDEPxRp71XOMnCGi1va2+/EshOCnPV6WvfbyIx5xAQTm1nFscfTkL9UnAcx6tenxzjtU/RHmyKSzctfhyuQ9L9XPleXmTuK8xxwSRx6JJGlVmjEYB1EafZG/iDnPYAEk1XToSmnLZLe5ZUxEYNRtdvax74NxzrvJC8Twyx6S0b4Pst2ZWUkMK5Vo5EpJ3T4o7SrZ5OLVmiTxnisdtEZZMkZCqqjLOx2VEHiTUaVKVSWWJOrVjTjmZXW3Mh6qRT28tuZciNnKlWIGdJKE6Wx4GrHh/VcoSTtva/wBypYj1lGUWr7XKKBxPxOYzWbyaVgRdYjPRGWPUOW2BPtDTk99q0S9TDxyztvz18NjOnnxEs0L7ctPE7wV556IoBQCgFAKAUAoCPf3iQxtLIdKICzHHgPcO9ShBzkox3ZGc1CLk9kcr+yTZf6X9H/3rb+G1/D4mL8SoePwH7JNl/pf0f/en4bX/AIzn4lQ/iJ3BudrW5lWGMuHbOnUmAcAsRnPfAJ+VV1cFVpRzS2LaWNpVZZYvU6J3ABJIAAySewHmTWQ1t2OS4h6RbOIlVMkuNsxqNP8AWYjPxGa3U+zq01d6dTBU7Rowdt+h5sPSPZSHDdSL3uu32oWx88Un2dWjtr0OQ7Soy0enU66CZXUMjBlIyGU5BHmCO4rE007M3pqSuj3XDpTca5otbU4llGr8hQWb5gdvnir6WGq1fZRnrYqlS9plCPSfZ5x058eehMfr5+6tX4ZW5r+eRl/FKN9n/PM6Dg3M1rdbRSgt+Qcq39VsE/EZrLVw1Wl7aNdLE0qvsst6oLyHxPikNumuaRUXwye58lHdj7hU6dOVR2irldSrCmrydjlbj0m2anCpM/vCKB/aYH7q2x7MrNa2Ril2nRW12bbH0j2Uhw3Ui97pt9qFsfOoz7OrR21JQ7Soy30Ott51dQ6MGUjIZTkEeYI71iacXZm6MlJXRsrh05n0h/uPcZAlhJ2zt1Fzt47VqwXvfJ/QyY33XmvqbODcU4e0oS3VFkYEDTAyEge0Rq0DbbPfwqNWnWUbz263+52lUouVoLXpb7FPwbjEdsLq2kD9c3E7JEEJaUSHKFNsEHz8PGtFWlKo4TjtZXfKxRTrRpqcJb3dlzuRkjP+DOHDByLm3yMf6R+9Scl6RUfg/oRs/R6fVfUvOcgY3tbnSzRwSkyhRkqrKV6mBuQv99Z8NZqcOLWnxNGKvFwnbRPUiXfEY766tFtj1FikM0sqg6UAUgIWI7sT291WRpyo0595pdWS8yEqka1SChrZ3bNHCOPwW1xfCdigNwzK5UlSQi5QEA+32OPHNSq0J1IU8mun3ZGnXhTqVFPTUrpeHStYGbRIoN8bzQu0ghLEeyPBgPaHwzVqqxVbLp7OXwuUulJ0c2vtZrcbFrw02M08Om8nnkVtcaM7MAwVt2Gn2ds98eVUT76EHeKS46Ivh3M5q0m3wK+84h1DdLPczpMHljhtIttSYwh0hcyBu5YnGM9hVsaeVQcIq2l2/n0KpVM2fPJ31SS+XUlRofV+D7HaSLO3b6Fu9RbXeVuj+pYk8lHqvoW/El/bO0OP4K43/qVRBr0efVF01+fDoz3z3avJZSCNS7KUfQO7BHVmAHicA7e6uYSSjVV/FfFHcXFypOy5P4G7hnNFtcOiQuXZgSQEb6MAZ+kJGF32x51GphqlNXkv99DtPEU5tKO/0OXtbyWDhqtGWjBunWWQLkxRGZ9cgBB7bDt41rlGE6+uvq6Lm7bGRTnCheOnravkrkjhLRtxCAxTz3CdKYGWQll1exlUbSAfDONtxUal1QkpJJ3Wi8yVNxddZW3o9WaGvoY5kbh88nUkmXq2ZVtOGb6RijDMJHcnttUlCUoNVlolpL6dSOeMZp0W7t6x+vQ28y3lvHLNLb3EkN4MAxBSROwwFDRFcPkbBh51yhGcoqM43hz5ef2Z2vOEZOUJNS5c/L7lp7R4lbsy4Y2j6h4Bi65GfjVKt3Ekv1L7l+vfxb/SbeVVIa+yP/VyY/Rx1HENWp/4r6s7R3qdX9DmbBGj4dw6coxWCYvKADlULyDXjucZB+da5tSr1Ip7rT5GSCcaFOTWz1+Z0l5zOksE5siZZI4i4ZUJUHyyRu2MnT7qyxwzjOKq6Js1yxKlCXdatI5uWeOV7Jo7qe5b1mBpNX4NO/dQoCNk7DvjVWtJxU7xUVZ25/uzI2pODUnJ3V+S/YvH4hHb8UlMzaBNDCsRIOHYMylRgd8kbVnUJVMOsvBu5odSMMQ83FKxFmsnll4xGgOp0hC/yj6udgff2+dSjUjGNFvg3f4lbg5SrJcbfQ13XMcElgbVAxuWhEHq+htYfRoOQRsB3yfKuxw8o1s79lO9+FjksRCVHIvaatYmpaNFecOjO5jtpEY+9URe/wAqhnUqVRri19y1QcatNckybAv7aSnG3qke/wD7r1W2vR1/k/oixL/yH/ivqeOeI2C284UusFxHLIqjJ0DILADvjOa7hGryi3uml1I4tNKMrXs02V/FuJxX8tpFat1OncR3Ejqp0xogbZiRsxzgCraVOVCM5VNLppeLZVVqRryhGnrZ3ZY8KU/4SvTjbp22P6r1TUa9Hh1ZdTX58+iOkrMahQCgFAKAUAoBQFBz5+4Lj8wfrLWnB+/j1M2M9xLocH6OeW7e7SZp0LFWULh2GAQSfqkZr08fialKSUGeX2fhqdWLc0dj+x7Yf5pv0r/9VYPxCvz+SPQ/DqHL5kzhXJ9nbSCaKMhwCAS7HGRg4DHGcZHzquri6tSOWT0J0sHRpyzRWpzXpc4q6JFbqcCTU8nvCkBV+Gcn+iK2dmUlKTm+Gxj7UrOMVBcdzZyhyHbGCOW4UyPIofBYhVDDIGFIycEZzUcVj6neOMHZIlhcBTyKU1dsmcX9HNpIp6IaB/Agll/pKx7fAiq6faNaL9bVFlXs2lJeroy75T4Q1pbJAzBipckjt7TlsDPxrPiayq1HNLc04ai6VNQbuVXpB5mNpCEjP00mQp/IUfWf474Hv38MVdgsN307y2RRjsT3MLR3ZyPJvJBu19ZuWcRsSVAPtyb7uzHspOfee+3c7sVjlS/LprX6GDCYF1V3lR6fU7Q8gcPxjoH49WTP61YPT6/6vkj0Pw/D29n5s5TmD0cSxESWTs+CCELBXU52ZH2Bx8iMeNbaHaMZLLWX7fAxVuzZReakz6BxHiItrZppjnQgLY/GfAGB8W2+deVTpurUyx4nqTqKlTzS4I+TcNsrnjF0zO+AMF2/FjU/VRF8++B7iTXu1J08HTtFa/U8KnCpjKjcnp9D6HZcgWKAAxGQ+LO7ZPyBCj5CvKnj68nvY9aGAoRW1yFxn0cWsinoZhfw9ospPkwYkgfDFWUu0asX6+qK6vZtKS9TRnHcqcZl4ddm3myIy+iVCdlPYSr9xz4r8q34mjHEUs8N+H7Hn4WtLDVck9uP7n2avAPoRQCgMYoBigM0BjFDlis4RwrovcOW1daUy4040+yBp7nPbvtVtSrnUVbZWKqdLI5Pm7lpVRcYxQ5YYodGKAzQCgMYoBigGKAYoBigGKAzQGMUAxQDFAMUFhigGKHLGaHRQCgMAUOWM0OigFAKAUAoBQCgFAUHPn7guPzB+stacH7+PUzYz3EuhzPofcCO4yQPbT9U1s7U9uPQxdlP1JdT6F1V8x9teVY9W6PSsD23oLnz30t8JZ0iuVGRHlJPcrEFW+AIIP5wr1OzKyjJwfHY8rtSi5RU1w3NnIfOsJiS2nYRugCK7bK6gYXLfitjA37/ADxXMZgpqTnDVP5HcFjYOKhN2a+Z3wOd68w9UzQHxfnRzdcUMWdtcduvuGQD/aZjX0GEXdYbN1Z87i/zcVl6I+yW8KoqoowqgKoHgAMAfZXgNtu7PoYpRVkbK4dFAfP/AEv3hWGGIfjuzn3hFxg/NwflXp9lwvOUuSPK7UnaCjzZa+jSxEVjG2PakLSN799K/wBkCqcfPNXa5aGjs+nloJ89Tq6xG0UB8n9LtkFuIpR/CIVPvKEb/HDAfIV7fZc7wlHl9zwu1YWmpc/sfROVroy2kEhOSYk1HzYAAn7Qa8nERy1ZJcz18PLNSi/A2ca4tHbRh3DHLBERBlnduyIPEnf7K5SpSqSsv+HatWNNXZq4VxgyuY3t5oWC6h1FGlhnHsspIyNtu9dqUlBXUk+hynVc3Zxa6mOWOLm7tknKBCxcaQc40uy98Dyrtel3VRwvc5h63e01OxJW9JnMPSkwE19XHsE6saAfyvHFQyrJmv5cSzO8+W3mUcfNbGyju+kMvKItGvYAymPVq0+7OMVoeFtVdO+yv8rmZYm9JVLbu3zsdTWQ2CgFAc3/AI2qxYwW9xOiEgyxINJI7hNTAvj3Vq9Fatnkk+TMvpSd8sW0uKLyxu1ljWRM6WGRkEH4EHcGs84uLaZohJSSaJFRJCgFAYzQDNAM0BGfiEYlWAt9IylwuDuqkAnOMdyNs1JQbjm4bEM6zZeJJzUSZmgFAKAUAoBQCgFAKAUAoBQCgFAKAUAoBQCgFAKAoOfP3BcfmD9Za04P38epmxnuJdD5Zyryi9+rssipoIB1AnOQTtivaxOMVCSTV7nh4XBuum07WL39iqX/AD8f9Q1m/FY/p+f+jX+FS/UdhyRy01jHIjSB9bBvZBAGBjx8T/cK8/F4lV5JpWsb8JhnQi03e50boCCCAQRgg9iPIisuxqaucBzD6NY3Je1bpt36bZKf0T3T7x8K9Oh2lKOlTXx/m55dfsyMtaengcrbcTv+FSCNwwX/ADb7xsPEoR2/on4jwrdKlh8Urx35rfzMUauIwkrS2/mx9W5c45HeQiWPbfS6nujDuD5+BB8jXiV6EqM8sj26FeNaGZHyqPbjW/8AHD/vTj+6vaf9Hp+k8RaY3X9R9pFfPn0RmgFAfMfTH9a1+Ev+2OvY7K2n5fc8XtbePmdpyWc2Nt/ql/8Ag15+K99Lqelhfcx6F1Wc0CgPm3pkI/yUeP0x+X0Vev2V/f5fc8ftbaHmdVyGpFhb5/IJ+1mI+6sOM9/Lqb8H7iPQkcy8HN1GoWQxyRussT4zpdc4yPEbn/zaoUK3dyd1dPRolXo95FWdmtUyHwbjU/X9Uu41SXQXSSM5jlUbHAO6n3Hy8Ns2VaMMneU3dcnuiulWnn7uotfDZnJcnzvPHb2RdoIwJJmZSVe4xM/0cTj6qj8bfUcbbb1txUVCUqtrvRdNOP2MOElKcY0tlq+uvA62GZv8KsmptAs1bTqOnV1iNWntnHjWFxXo6fHN9jem/SGuGX7nLW/7zwfzpf8AimrZL+ql/j/+THH+mj/l9y45mXTcmS6WdrXpqEeFnCxMM62lWJg3l7W48KooawtTtmvxtrytcvr6VL1L5bcOHWx1nD2UxIUfWmhdLlsllwMMWPckb5rHO6k77m2Fsqs9CHzQ7LZ3JX6whkII7j2DuPfVmHSdWKfNFeIbVKVuR45RRRZWwXt0Yz8yoLH46ia7iW3WlfmzmFSVGNuSK7juqe9hs9bpF0nnk0MVMmGCKmobgZ3OO9WUbQpOpa7vZX4Fda86sad7K12a7CE2l+tuju0M0LPody2h0YbqzEkAg9vOuzaq0c7WqfDTc5BOnWyJ6NfQo7CwaXhsl09xOZY1uGiPVYBOmzsNgfaJI7tnbAGMCr5zUK6pqKs7X05pGaEHKg6jk7q9teRJ4jbvHaQ8Q68rXBNvIx1kIVkKgxdMeyEw3gM7VGnJSqSo5Vl14cuN9yc4yjTjVzPNp8+FifxWBpuKCAzSpF6oJHRHK68TMMZG65yMkYJAx2qum1DD57K+b7E6ic8Tku7ZeHU0RXLWUl9EjM8cduLmJXYtobDArqY50kgHFScFWjTk1Zt2djik6MpxTukroq8SerrNFHfteYSTqnUUdjhmUpr09MjIAC9sVd6veOMnFR2tx+Nr3KrS7tSipZt7/wAZbcS4UknE4gxlXqW8jtpmcEEMgwpVvZHuGxqmFVxw7tbRrgi2dJSxCvyfE0cQuRLezQypdSRQLEqRwFsanTUZJSrKxPYDJ8DXYRyUYyi0nK+r8ORGUs9aUXdqNtvHmaru4uI+G3mrroEcdBpCVk6ZeMgFs5OMkZz2qUI05YiGzvvba+ok5xoT3VtudtCXxewa1NrcJNM0rXEUcrNISsiyEhgY86VHkANvsqFKoquaDStZtabW8dyVSDpZZpu91fXe5IaD12+uYpXkEVssKrGkjKGaRS5dihBJGMDeo5u5oxlFK8r7q+3Ulbvq8oybtG3HmR+Y2aD1SzD3EiSNKzlGzMyINQiDDBx7QBOc6V71KhaeerZJq1r7X5ka7cMlK7s79dOBt4CJEuisMVzHbtE2VuNRCSgjSyF2Y7gnIzUa2V07yazX4cvIlSUlU9VPLbjzI/LWhJY0uvWI73LZZ5HMc53zowemy4I9nAxgVOveUW6dnDwSuvuRoWUkql1LxvZ9OB3NeeegKAUAoBQCgFAKAUAoBQCgFAKAUBQc+fuC4/MH6y1pwfv49TNjPcS6HNeh38Hcfnp+qa19qe3HoYuyvYl1PoleWesKAxmgM0BR862UctlOHA9mN5FJ/FZVLAjy7Y+BIrRhZyhWjl5mbFwjOjLMcR6HpG6s6/ilEJ+IYgfcTXo9qpZYs83slu8kVfPsDW3EjKB3aOdPiMZ/tqftq/BSVXD5X4opxsXSxGfoz69w68SaNJUOVdQw+fgfeO3yrwZwcJOL3R70JqcVJbMk1EmKA4L0uWRa3ilA/Bvg+5XGM/1lUfOvS7Lnao4819Dy+1Kd6alyf1JXot4kJLMRZ9qFipH8liXU/Dcj+jUO0abjVzcGWdm1VKjl4o7OsB6AoD476TOI+sXghj9rpgRADxkY+0B/ZX4g173Z9Pu6LnLjr5Hgdo1O8rKEeGnmfV+E2fRhih79NETPnpUDNeJUnnm5c2e5Thkgo8kaeMWEkoUxTtA6nIIUMrZGCHQ7MP8AZXac4xbzRuv5sRqwlJerKzIfC+Aus3rNxOZ5QpjQ6AiopOSFQE7nzJqypWTjkgrLfmQp0GpZ5yu/gRY+T0W1itxKweF2kinCgMjFy3bOCN8EdjU3i5Oo5taPRorWDiqagnqtmWcPCMXRui+WMKwldOBs+vV3+6qXV/L7u3G5eqVqme/CxXx8qAWiWnVOElEuvTucSmTGM+/FWvEt1XUturfKxUsKlTVO+zv87kninCrmRn6d3043GChhViu2k9NsjGffnc1XTqU4pXjd9fqSqU6km7Ssn4fQivZyRy2drbmRYoRrlffDIo0rGTjDMzZJHgBnyqedSU6k93t+5HLKMoU4bLfodG6AggjIIwQfEHwrNc02urHM23LNxADHbXrRw5JWNoVcpk5IR2IwN/EGtcsRCfrThd872v1MkcNOHqwnZcrXt0JF7y2WELR3EiTwgqszAOXDfWEqnAYH5YqEMRbMnG6fD9ic8PfK4ys1x/c28J4E0czXE0xnmK9MNoCKiZ1aUQE4ye5JNcqVlKOSKst/M7TotTzzd3sYsuXRHZPZ9QkOsy69O46pbfGfDV91J13KqqltrfIRoKNJ078/mer7gAktEtOoQEEI16dz0ip7Z8dP30hWcajqW3v8zs6ClTVO+1vkUnFrR5OLqI5jC62QZWABH4dhpdD9ZSD223APhWinNRwvrK6zfYy1YSlilldnl+5ccM5dCddp5OvJcDTKxXSCgUqEVQTpXBPjVFSu5ZVFWUdv3NNPDpZnJ3b3NFpwG6iRYo77ES4CgwK0iqOy6y2DjzK1KVenJ5nDXrp/PMhGhUissZ6dNf55EnjXBJJZY54Z+jLGrJkxhwyNjIKkjfIznNQpVlGLhKN0/GxOrRlKSnF2a8zxecBk63rEFx0pGVUl1Rh0k0/VYrkYYeYNdjWWTJON1w1tY5KhLNnhKz46bmbzgUk9rLbzXBdpCPpBGq6QCpCqgPbK+JJ9o0hWjCopwja3C52VGU6bhOV78bErjHCBOkSl9PTlilzjOemc6fdnzqFOrkbdt018SdSlnSV9mn8CJxDgMhnNzb3HQkdQkgMYdXC/VJUkYYds5/vzOFaKhknG6W3ArnQlnzwlZvfS5i75daSOLNw/rETM6XBVc6mzqBTtoIONPkBSNdRk/V9V8P5xEsO3Fet6y2f84EmxsLkFjNdBwVKhUhVApOPbySxJGDtnG/aoznTfsxt538icIVP7pX8iGnAJnkia4uussLdRFEIQlwCA0jAnOATsAKm68FFqEbX8b/AgqE3JOcr28LG7l4zPJczSFxG8gWGNxjSsYKlwD2Dtv8AD41GtkUYxjvbV9f2O0c8nKT2voun7l5VBoFAKAUAoBQCgFAKAUAoBQCgFAUPPY/yC4/M/5hWnB+/j1M2M9xLofMeTeb/UFkXo9TWVOdenGAR+Sc17GLwffyTvax4mExvcJq17nR/srD+KH9N/9Ky/hT/V8v8AZs/Fl+j5/wCix5f9Ia3NwkBtymvIDdTVghS240jbaqa/Z7pQc817eBdh+0VVqKGW1/EreeeJ31pd9eNn6BVQoIJiz4q47BifHY77GrcHSoVqWSXtfMqxlWvRq547fI9WfpTXH0tudXmjgg/JgMfaaS7Klf1ZfEQ7Vjb1o/ApuZed5r5fV4YiiuQCoJZ5PELsNh7hnOO+MitGHwMKD7yb2+RnxGOnXWSC0fzO29H3LjWcJaQYllwWH5KjOlM+J3JPx91edjcSq0/V2R6OBw3cw9bdkjnblkXsICkLKmTGx7b90b3HA38CB8KhhMS6E7vZ7k8Zhu/hZbrY+b8G5hu+FuYXQ6c5MMm2/i0bDtnzGQa9erh6OKWeL8/3PHpYithXkktOR0p9KqY/czavLqDH26f7qyfhUr+0bPxWNvZ+ZQ3fGb/irdKNSEzuqZCD3yyHv8PsGa0RoYfCrNJ3fj9kZ5V8RinlirLw+7Pqj8MWS29Xl9sGMRufEkKBqHvyM5868VVHGpnjzue06alTyS5WPkd3Y3nCLjqL9XssmMpIufquPA+7v5Hxr3Yzo4ynle/Liuh4MoVsHPMtvqdNaelRMfSW7A/yHBB+TAY++skuypX9WRsj2rG3rRK7jXpKllUx28fS1baydT7+CADCn7atpdmRj61R3KqvacprLTVif6P+TXVxd3KlSN442+tk/wAI48D5A753OMCqsdjE13dPbiy3A4Jp97U34f7PpFeSeuKAUAoBQCgFAKAUAoBQCgFAKAxpoDNAKAUAoBQCgFAKAUAoBQCgMZoATQBWB3BzQJ3M0AoBQCgFAKAUAoBQCgPLoCCCAQdiD2I8iKBq5W/4uWf8Ut/0Cf8ATV3pFX9b+LKfR6X6V8EP8XLP+KW/6BP+mnpFX9b+LHo9L9K+CN1rwa2ibXHbwow7MkSgjPfcDNRlVqSVpSb8yUaNOLvGKXkTWUHY7jyqsm1cqJuVrJzk20OfHCAZ+OnFXrE1lopP4lLwtFu7iiXYcKgg/Awxx57lUAJ+JAyarnUnP2ncnClCHsqxNqBYKA0XdnHKNMkaSL5OoI+wipRlKLvF2IyhGStJXK5eVrIHPqsP6MH7iMVa8TWf97+JV6LR/SvgWsUKoAqqFA7ADAHwAqltvcuSS2PdcOnmSMMCCAQe4I2PxFFpqjjSejKiXlWyY5NrD8kA+4Yq9YmstpMpeFoveKJVhwa3hOYoI0PmqAH7cZqE6s5+1JslCjTh7KSJ9VlooCj5u4pJBEohx1ppEgiJ7Bnz7RHuAP3Vow1JTk82yV35GbE1XCPq7t2RBueWZ1jLx310ZwCQXkzGzYzgxY0hSdvd76sjiIN2lBZemvxK5YeajeM3m66fA3WPNaGyhupAS0uEEcYyzy5KlUX3kHuajPDS76VNcOPgShil3SnLj9SZZ8fVhIZYpbfpLrfqqANG/tKykhux271XKg01lad+RZGumm5Jq3M08O5mEzIPV7hEk/ByvGNDbFh2YlcgZGQM1KeHyJ+sm1urkYYjM0srSfEn8M4ok6yMoYCOSSJtQH1ozgkYJ28qqnTcGk+Kv8S2FRTTa4afAgPzXALaK7YOsUrBBkDK5LDLAHsNJ7ZPuq1YabqOmt0VelQVNVHszNnzOjzJC8M0JkBMRlQASYGSBgkg43wcUlh2ouSadt7cBHEpyUWmr7X4i/5jMRf/ACW5dI865FRdOwySupgXA8wKQoZkvWSb4fxHZ18t/VbsQOY+ZmjW0eBZGSaWEllQEPG2cxLqIIkO2Bt27irKGGUnNTdmk/j+xVXxLioOCum18OXUlXt+rvZs/rMLPK4WPZckKdp1BOVwMjGe4quMGlO1nZb/ALFkppuDd1d7fub77mRUlaGOGad0AMgiUEJkZAZmYDJG+BSGHbjmk0k9rnZ4hKWSKbfG3ALzPCbV7sayiZDppw6sCAUZSRhhkeNc9Hn3ip8X8AsTB03U4Lc0x82RmSNTFMscraIp2TEbsfqgb6gG8CRv8Kk8NKzd1dbriiKxUbpWdns+DN97zCElaGOGad0CtJ0gvsBhlQdbDLEb4GajGheKk2kntfiSniEpOKTbW9uBbxPqUNgjIBwRgjIzgjwNUPRl6d0Ud9zP0tZNrcmOMsHlCAKApwzKGYMyjf2gMbZrTDD5rLMrvh/NDPPEZb+q7Lib+JcyQwLC7amWb8GUXOfY1rt3OrYAAE5IqFPDzm2lw3JVMRCCi3x2McK5hWaUwNFLDKF6gSVQCyZxqUqSNj4f967UoOEc6aa8BTrqcsrTT8SJd82RgyhYp3jjLJJOiZjRgPazvqIHiQDipxwstG2k3sr6lc8VHWybS4o9+j8ftfb/AJh/XauYz38upLB+5iR+ITS3V49pHK8MUKK0zxnEjM+6orfijTvkb1KCjSpKpJXbel9tCE3KpVdOLsktbbke8SXh8sDC4mmgllWGRJn1lWfOl0c7gDG4/wDBOLjXjJZUpJXVtCE1KhKLzNxbs76nRwcTRp5LcBtcao7HA0kPnGDnOdvKsjptQU+DNaqJzcOKNUXG0YXBCyH1dijgLksQob6MKSW7+6pOjJZb8TirJ5vAi23MoMscUtvPAZciNpFXSxAzpyrHS2PA1OWH9VyjJO29iuOIvJRlFq+1yssiBe8VJLKNFvlkPtAertkqfBh4VbNfk0reP1KYP86rfkvoQOYL8GxtI1W5ljlaDU7YLOmsZjkYNvI3l2PnVtGm1Wm3ZNX+P7IhWqfkwSTadv8Aha2vQSazVEuLbX6wyW4wqEgDV10BO/iuM1RLPKM22pbXfHyLlkU4JXW+n7ku55pVZJEjgnn6RxK8SAqjdyu7Asw8QM1GOGbim2lfa5OWJSbUYt23sb7vjukqI7e4m1IJMogChTnALSMo1bfV71CFG61kl1/1clKtbaLZW8X5qzYvcW6SahqTdBmF179ZSdgPn3FXU8N+coTf+14FVTFfkucE/wBupjivFhJYvJKt3bhTECyaUkJLINUZDEaSTv22zXKdJqsoxs9+nmcqVc1FuV1t18i14tx1IHSIJJLK4JWKNQW0ju7ZICr7yaqp0XNOV0kuLLqldQaja7fBGOF8wRzdQaJI5IhmSKRcOBjIIwSCDjuDSpQlCz3T2aFOvGd+DW6ZWjniExiZYbgw+zrlEY0xk42b2snGd9OQO3farvQp5sravyvuVemRtmSdudti04lxxYmjjWOSaSQFlSMDOgYy5LEALuB38aop0XJOTdkuZdOsotJK7fIm2F11UDlHjJzlJBhhgkbgEjw7g7jFQnHK7Xv0LISzK9rdSRUSQoBQCgFAKAUAoBQCgFAKAUAoBQCgFAKAUBzXPNu5ihmjUubeeOcovdkXIYKPPBz8jWrCSjmcZf3JoyYuMsqlH+1pmLrna06WqKUSyEfRxKCXZyNl0YyN/OkcHVzWkrLi+AljKeW8Xd8EUXqDWMPDHlBCQPJ1ts6DMCQzY8FJxmtPeKvOqo7tK3jYzZHRhSctk3fzLfmTiEd7Z3UNq/VdYwx0AkfW1aQw2LEKdhvVFCEqNWEqitqaK841aUow10J3CeaLWURJHIC7gARgEsuFyQ4H1QMdzVdXDVYXcloWU8RTkkk9WUvBONxWwu4ZSRL61OyxAEvIJDlOmo+tmr6tGVTJKO1lrytzM9KtGmpxlvd6dSr6mjhHD2wSFuYmwoyTiSU4UeJPlV9r4qov/q/oU3thab8V9WXHFOKRXlzZR2ziQpL13Zf4NFU5D/kkk4waz06cqMJuorXVl4l86sas4KDvZ3Id1xYyvdrPdyQNHI8UVtGE1OuPYbDIzSa8+FTjSUVFwje+rbvp89LEJVXJzzStbRJGuZwvDeGSHZI7i1kdvBUBcFj7tx9tSjriKsVu1KxGWlCk3wauXHG7yOafh0kbq6GeTDKcg4RgcHx3B+yqKUHGFRSVnZfVGirJTnTcdr/Y0cH4nFZ3F5HcuImedp0Z9g8bKMaW8dOMYqVSnKrCEqavZWfg/wDZClUjSnNTdru/kVV37XD+JXABWOeUvFkY1JlB1MHcBjk1dFpV6UOKWvzKnrRqTto3oX/OX4C1/nVr+tWbC+3L/FmjEr1I9UQeZrm3ilmmivPV7pFAdD2mwoZFaNh7exADL2zVmHjUlFRlG8efLnr+5XXcIyc4StJfM63hU7yQxvIuh2RGdfyWKgkb+RrFNKM2ltc2025QTe5wXEOKGaO7E128cgM0SWcaqCQAQoYFC7hhuWGBgntXpQpZJQywutHmf8sjzZ1HKM80tdVlRMQ+xwb+j/w9Vv2q/wDOJYvZo/zgW14f21t/5tN+ulUx/ppdV9y+X9RHoyp5a41Da20ltMxFxHJKpiwS8jM5KlF7tqyN/wC6rq9GdSoqkfZaWvBWM9CtCnTcJbpvQuuQP3vt/wA0/rtVGM9/LqacH7mJXz3a2PEZpZsrDdJFiUj2VkjGjQxHbI3yf/y2MXWoKMd4t6eDKnJUa8pS2lbXxRG5i43b3k1pbQyow9YSV3z7IEYJ0BjsWbPYf31KhRnShOpJcLJdSFetCrOFOL43fkS5eJRWvEp2ncRrLBEUZtlbQWDAHz37VBU5VMOlBXs38yx1I067c3a6RX8P4s6W/E7mFDrExdFZSCAUj9pl77KdWDVk6UXOlCT4fdlUarjCpOK4kee5R57ErevdN10LfU6aEq2NkQaGO+FJzgHbapxi1CpeGXTz+b1IOSc6fr5nctIP3Xxf/VQf8M1Uy91R6v6lsPfVui+hFb97eG/66z/Xqf8A8ir0kct+RT6xLbjh/bLh/wCbd/7tKope4qeX1Lavv6fmQOXeNQWYuYbmQRSLcSyYbOZEc6ldPysjwG+1W1qM6uWUFdWXkQo1oUs0Zuzu2e+K8ZLXXTkums4OikqHCq0pY7+1Ipxp2GkDNcpUbU8yhmd7Pw+B2pVvUs5ZY2v1+JWcPQtwziQXW5M9wQWGHYYRtTjAwxG5GB8Kum7YilflEpp64epbmybzTxOGfhLmKRXC+rhsH6p6sWx8j7qrw9OUMSsytv8ARk8RUjPDPK77Eu+u0teJ9Wc6I5bcRpK31Q6uWMZb8XI33qEIuph8sNWnexOU1TxGaeiatc12cy3N7c3UJ1Qra9DWB7Lyai50n8bSNs++uzTp0Y05b3v0RyLVStKcdstupotf3hP82f8A5qlL+t/9jkV/4fkSOJm102xkujazpArRyhseyVAKnUNLjI+r3+2oU3UvJRjmi3qiVTu7RvLK7aMt+UL+Se2WSXBYlgHC6RIoYhZAp7ahvVOJhGFRqP8AzwL8NOU6acv++JdVQXigFAKAUAoBQCgFAKAUAoBQCgFAKAUAoBQCgNawqDqCgHzxv9tduzmVbnsjwrh0wkYUYAAHkBQ4klsYWJQSQACe5A7/ABpcWQMYznAz543+2gsr3KzmDhJuFiCsF6c8UxyO4QklRjxOauo1e7bfNNfEqrUs6SXBp/As0jAyQAM7nA7/AB86pLUkgYxnVgZ7Zxv9tLiy3MsoIwRkeVDtgqADAAAHYUOWRiSJW+sAfiK6m0Gk9z1iuHRigseWiUkEgEjscbj4Glzlke6HTx0hnOBntnG/20OWR6xQ6MUB5MQznAz543+2ngcstz0BQ6YZQRgjI8jQ41ci33CoZozFJGrIfxSOx8xjcH3jepwqTg80XqQnShNZZLQ2W9kiIkYGVQBV1bkADA3bfPvrjk22ySgkkuRvxUSR5SIDsAPgKPU4klsesUOjFBYYoLHlolJBIBI7Ejt8KXOWQeMHGQDjcZHY+6ibQaTPWKHTykQGwAA74AocsjLoCMEAjyIoGrmVUAYAwPKh2wxQ5Y8yRK3cA/EZrqdg0nuewK4dFAKAUAoBQCgFAKAUAoBQCgFAKAUAoBQCgFAKAUAoBQCgFAKAUAoBQCgFAKAUAoBQCgFAKAUAoBQCgFAKAUAoBQCgFAKAUAoBQCgFAKAUAoBQCgFAKAUAoBQCgFAKAUAoBQCgFAKAUAoBQCgFAKAUAoBQCgFAKAUAoBQCgFAKAUAoBQCgFAKAUAoBQCgFAKAUAoBQCgFAKAUAoBQCgFAf/9k=;" parent="1" vertex="1">
          <mxGeometry x="180" y="-679.7599999999999" width="220" height="54.76" as="geometry" />
        </mxCell>
        <mxCell id="i0cpfaNezCLfOTg-FPlP-38" value="&lt;span style=&quot;font-size: 16px;&quot;&gt;&lt;b&gt;fichier skills.csv&lt;/b&gt;&lt;/span&gt;" style="text;html=1;align=center;verticalAlign=middle;whiteSpace=wrap;rounded=0;" parent="1" vertex="1">
          <mxGeometry x="200" y="-624.9999999999999" width="180" height="30" as="geometry" />
        </mxCell>
        <mxCell id="i0cpfaNezCLfOTg-FPlP-44" value="&lt;div style=&quot;forced-color-adjust: none; font-family: Consolas, &amp;quot;Courier New&amp;quot;, monospace; font-style: normal; font-variant-ligatures: normal; font-variant-caps: normal; letter-spacing: normal; orphans: 2; text-indent: 0px; text-transform: none; widows: 2; word-spacing: 0px; -webkit-text-stroke-width: 0px; white-space: pre; background-color: rgb(251, 251, 251); text-decoration-thickness: initial; text-decoration-style: initial; text-decoration-color: initial; font-size: 14px;&quot;&gt;&lt;font style=&quot;font-size: 14px;&quot;&gt;&lt;b style=&quot;&quot;&gt;table_monitoring_1&lt;/b&gt;&lt;/font&gt;&lt;/div&gt;&lt;div style=&quot;forced-color-adjust: none; font-family: Consolas, &amp;quot;Courier New&amp;quot;, monospace; font-style: normal; font-variant-ligatures: normal; font-variant-caps: normal; letter-spacing: normal; orphans: 2; text-indent: 0px; text-transform: none; widows: 2; word-spacing: 0px; -webkit-text-stroke-width: 0px; white-space: pre; background-color: rgb(251, 251, 251); text-decoration-thickness: initial; text-decoration-style: initial; text-decoration-color: initial; font-size: 14px;&quot;&gt;&lt;font style=&quot;font-size: 14px;&quot;&gt;&lt;b style=&quot;&quot;&gt;table_monitoring_2&lt;/b&gt;&lt;/font&gt;&lt;/div&gt;" style="text;whiteSpace=wrap;html=1;align=center;" parent="1" vertex="1">
          <mxGeometry x="-80" y="-358.04" width="90" height="30" as="geometry" />
        </mxCell>
        <mxCell id="i0cpfaNezCLfOTg-FPlP-48" value="&lt;div style=&quot;forced-color-adjust: none; font-family: Consolas, &amp;quot;Courier New&amp;quot;, monospace; font-style: normal; font-variant-ligatures: normal; font-variant-caps: normal; letter-spacing: normal; orphans: 2; text-indent: 0px; text-transform: none; widows: 2; word-spacing: 0px; -webkit-text-stroke-width: 0px; white-space: pre; background-color: rgb(251, 251, 251); text-decoration-thickness: initial; text-decoration-style: initial; text-decoration-color: initial; font-size: 14px;&quot;&gt;&lt;font style=&quot;font-size: 14px;&quot;&gt;&lt;b style=&quot;&quot;&gt;table_users&lt;/b&gt;&lt;/font&gt;&lt;/div&gt;" style="text;whiteSpace=wrap;html=1;align=center;" parent="1" vertex="1">
          <mxGeometry x="-114.5" y="-410" width="90" height="30" as="geometry" />
        </mxCell>
        <mxCell id="i0cpfaNezCLfOTg-FPlP-49" value="" style="endArrow=classic;html=1;rounded=0;" parent="1" edge="1">
          <mxGeometry width="50" height="50" relative="1" as="geometry">
            <mxPoint x="300" y="-260" as="sourcePoint" />
            <mxPoint x="90" y="-260" as="targetPoint" />
          </mxGeometry>
        </mxCell>
        <mxCell id="bdRAZURiX2hMwpf--Zmi-3" value="" style="endArrow=classic;html=1;rounded=0;" parent="1" edge="1">
          <mxGeometry width="50" height="50" relative="1" as="geometry">
            <mxPoint x="-80" y="-521.87" as="sourcePoint" />
            <mxPoint x="60" y="-520" as="targetPoint" />
          </mxGeometry>
        </mxCell>
        <mxCell id="lSF_Fb-CaB4T0vGHRy9r-1" value="" style="endArrow=classic;html=1;rounded=0;" parent="1" edge="1">
          <mxGeometry width="50" height="50" relative="1" as="geometry">
            <mxPoint x="60" y="-540" as="sourcePoint" />
            <mxPoint x="-80" y="-540" as="targetPoint" />
          </mxGeometry>
        </mxCell>
        <mxCell id="lSF_Fb-CaB4T0vGHRy9r-2" value="" style="endArrow=classic;html=1;rounded=0;" parent="1" edge="1">
          <mxGeometry width="50" height="50" relative="1" as="geometry">
            <mxPoint x="360" as="sourcePoint" />
            <mxPoint x="100" y="-470" as="targetPoint" />
            <Array as="points">
              <mxPoint x="100" />
            </Array>
          </mxGeometry>
        </mxCell>
        <mxCell id="lSF_Fb-CaB4T0vGHRy9r-3" value="" style="endArrow=classic;html=1;rounded=0;" parent="1" edge="1">
          <mxGeometry width="50" height="50" relative="1" as="geometry">
            <mxPoint x="120" y="-470" as="sourcePoint" />
            <mxPoint x="360" y="-20" as="targetPoint" />
            <Array as="points">
              <mxPoint x="120" y="-20" />
            </Array>
          </mxGeometry>
        </mxCell>
        <mxCell id="lSF_Fb-CaB4T0vGHRy9r-5" value="" style="shape=flexArrow;endArrow=classic;html=1;rounded=0;" parent="1" edge="1">
          <mxGeometry width="50" height="50" relative="1" as="geometry">
            <mxPoint x="330" y="-986.8199999999999" as="sourcePoint" />
            <mxPoint x="290" y="-986.8199999999999" as="targetPoint" />
          </mxGeometry>
        </mxCell>
        <mxCell id="lSF_Fb-CaB4T0vGHRy9r-6" value="" style="shape=flexArrow;endArrow=classic;html=1;rounded=0;" parent="1" edge="1">
          <mxGeometry width="50" height="50" relative="1" as="geometry">
            <mxPoint x="300" y="-810" as="sourcePoint" />
            <mxPoint x="450" y="-610" as="targetPoint" />
            <Array as="points">
              <mxPoint x="450" y="-810" />
            </Array>
          </mxGeometry>
        </mxCell>
        <mxCell id="Epwkb5r2UPKjFuTg-i0H-1" value="Offre d&#39;emploi" style="rounded=1;whiteSpace=wrap;html=1;" parent="1" vertex="1">
          <mxGeometry x="-570" y="420" width="120" height="60" as="geometry" />
        </mxCell>
        <mxCell id="Epwkb5r2UPKjFuTg-i0H-2" value="" style="endArrow=classic;html=1;rounded=0;" parent="1" edge="1">
          <mxGeometry width="50" height="50" relative="1" as="geometry">
            <mxPoint x="-510.48" y="480" as="sourcePoint" />
            <mxPoint x="-510.48" y="530" as="targetPoint" />
          </mxGeometry>
        </mxCell>
        <mxCell id="Epwkb5r2UPKjFuTg-i0H-3" value="Segments de texte" style="rounded=1;whiteSpace=wrap;html=1;" parent="1" vertex="1">
          <mxGeometry x="-570" y="530" width="120" height="60" as="geometry" />
        </mxCell>
        <mxCell id="Epwkb5r2UPKjFuTg-i0H-4" value="" style="endArrow=classic;html=1;rounded=0;" parent="1" edge="1">
          <mxGeometry width="50" height="50" relative="1" as="geometry">
            <mxPoint x="-450" y="560" as="sourcePoint" />
            <mxPoint x="-390" y="560" as="targetPoint" />
          </mxGeometry>
        </mxCell>
        <mxCell id="Epwkb5r2UPKjFuTg-i0H-5" value="Classification&amp;nbsp;&lt;div&gt;contxt emploi vs contxt entreprise&lt;/div&gt;" style="rounded=0;whiteSpace=wrap;html=1;" parent="1" vertex="1">
          <mxGeometry x="-388.5" y="530" width="120" height="60" as="geometry" />
        </mxCell>
        <mxCell id="Epwkb5r2UPKjFuTg-i0H-6" value="" style="endArrow=classic;html=1;rounded=0;" parent="1" edge="1">
          <mxGeometry width="50" height="50" relative="1" as="geometry">
            <mxPoint x="-328.98" y="590" as="sourcePoint" />
            <mxPoint x="-328.98" y="640" as="targetPoint" />
          </mxGeometry>
        </mxCell>
        <mxCell id="Epwkb5r2UPKjFuTg-i0H-7" value="Classification&amp;nbsp;&lt;div&gt;compétence vs&amp;nbsp;&lt;/div&gt;&lt;div&gt;non-compétence&lt;/div&gt;" style="rounded=0;whiteSpace=wrap;html=1;" parent="1" vertex="1">
          <mxGeometry x="-388.5" y="640" width="120" height="60" as="geometry" />
        </mxCell>
        <mxCell id="Epwkb5r2UPKjFuTg-i0H-8" value="" style="endArrow=classic;html=1;rounded=0;" parent="1" edge="1">
          <mxGeometry width="50" height="50" relative="1" as="geometry">
            <mxPoint x="-328.98" y="700" as="sourcePoint" />
            <mxPoint x="-328.98" y="750" as="targetPoint" />
          </mxGeometry>
        </mxCell>
        <mxCell id="Epwkb5r2UPKjFuTg-i0H-9" value="Matching compétences référentiel" style="rounded=0;whiteSpace=wrap;html=1;" parent="1" vertex="1">
          <mxGeometry x="-388.5" y="750" width="120" height="60" as="geometry" />
        </mxCell>
        <mxCell id="Epwkb5r2UPKjFuTg-i0H-10" value="" style="shape=flexArrow;endArrow=classic;html=1;rounded=0;" parent="1" edge="1">
          <mxGeometry width="50" height="50" relative="1" as="geometry">
            <mxPoint x="-268.5" y="559.44" as="sourcePoint" />
            <mxPoint x="-220" y="560" as="targetPoint" />
          </mxGeometry>
        </mxCell>
        <mxCell id="Epwkb5r2UPKjFuTg-i0H-11" value="" style="shape=flexArrow;endArrow=classic;html=1;rounded=0;" parent="1" edge="1">
          <mxGeometry width="50" height="50" relative="1" as="geometry">
            <mxPoint x="-268.5" y="669.44" as="sourcePoint" />
            <mxPoint x="-220" y="670" as="targetPoint" />
          </mxGeometry>
        </mxCell>
        <mxCell id="Epwkb5r2UPKjFuTg-i0H-12" value="&lt;span style=&quot;font-size: 14px;&quot;&gt;&lt;i&gt;Êtes-vous d&#39;accord ou non avec les prédictions de chaque modèle IA ?&lt;/i&gt;&lt;/span&gt;" style="text;html=1;align=center;verticalAlign=middle;whiteSpace=wrap;rounded=0;" parent="1" vertex="1">
          <mxGeometry x="-204.5" y="540" width="90" height="140" as="geometry" />
        </mxCell>
        <mxCell id="u9nLd--eHnFeTg0ip979-1" value="" style="endArrow=classic;html=1;rounded=0;" parent="1" edge="1">
          <mxGeometry width="50" height="50" relative="1" as="geometry">
            <mxPoint x="-331" y="-139.5" as="sourcePoint" />
            <mxPoint x="-301" y="-140.5" as="targetPoint" />
          </mxGeometry>
        </mxCell>
        <mxCell id="u9nLd--eHnFeTg0ip979-4" value="" style="shape=image;verticalLabelPosition=bottom;labelBackgroundColor=default;verticalAlign=top;aspect=fixed;imageAspect=0;image=data:image/png,iVBORw0KGgoAAAANSUhEUgAAAOEAAADhCAMAAAAJbSJIAAABIFBMVEX/////0h7/rAM6O0X/qgD/1B/vTk7/0R3/qAD/zxz/zBr/1hz/rQP/tgz/yhn/sQj/wRP/vBD/xhb/wBP/uQ7/+estMkb/2RsxNUYlLUf/6c//8tz/sBw2OEX/yGH/tiz//ffvSU//8+D/vErowCQhK0f/0H4rOkX/8N7/36v/1Yv/yWv/68j/2pf/vlP/+en/47j/2p//vD1FQ0PXsyigiTRSTUHwxyJZUz+3mi+ojzJvYz2QfDeYgjbJqCs9PkR3aDxwQEenRkrTS0z/yXj/5L3/ynV/bzpnXT/OrCkZJki6nS5XUUEOIEhOPUaAQkiOQ0lcPkfiTU3ASUyxR0ogOUTyf0DxYEn6rC/2kDr4nzXuQVHwVkr3lTfzfEPlbUU0zCyyAAAStklEQVR4nO1diXbbNhatZMAkxVXU6kUWEytObcvymrhx1qauna1r2jSZdDL//xcDknhYSIqkJFJKZ3jnnKkjyyQuHvA2AA/ffFOhQoUKFSpUqFChQoUKFSpUqFChQoUKFSpUqFChQoUKFQqE17n77Xj/4OBwJ8Te3unJt3ePvVW3qxB43vjoejK01QAoRPCzsb17c3DS8VbdwoVwvH89DHjVExFQ3T483Vp1O+fE+MAXXDI3iScR5+FJZ9XNnRHe5t6wnoMdgIhy58d/EMnO6e4s9ECUw5stb9VNz4WtG3tmelSSaHKy6tZnY7yTOPd8XYNE1BPVD1LtfW/VFFLx45kaa7hPxrDNdstx3UYAy3VbzbZtJ5JU7VNv1TSmYnMSbTP5p2E33Yam1XCNAAcIf1K0htsy7bgw1eH+qpkko3NTRxF6PjuNMAo4xeF/rFmOacTkOBmvmk0CTg1p/hFrbjoNPIWbRBNrbjsiSKTueasmFMHWmaxfkN3SpsougSZ2zYgY0delVo8MWQampeQlx9Bo2tJD1MOvxwU4nkgCNNqN3MKT5Ki1bFnj/LhqZhTjbZEgaueZfVNIKo6kddSjVXMLcCTwQ6itzc0vREtWqqsfqd6OQFA1G/m1yzRobcHqqMNVh1adoUDQcBbnR4AtQeWg7dXq1C2RoDmXgkmC0hTEiFbp4Yy3WUMQchacgCKwJZgf9XRlBH8U7JetFccv4Njmo0M9WBVBQem1Z7fwWXD4SF0RxbFAsFU4PyJFl9v/lRjGrW2uC9wSCBI0BIrLVzfHTMmgemE6NAZuNpZO0Ruyd9uNsvj5+obPhCWHjLtLIUjAKW4v1bs5AFWOSiYoUETDJRI8YQTrWskEa9iE4aIeLo3gFoQ4yChbgj5FplGXpm28MzYJSzITMkONUTQ2l8Nwj/lTzhIIEjAnFZ15yyA4ZpOwWZodlIFdNk6X4r7BmEH2kggStJi2WYLJYGPUKDiaSAXLNZZvMjaZBV6GlmFQQH2X74NPYLy0l0mwVmNT0bhbLkGw9cgo3dTLwG3atepNuQwhZCorYJoOjbkZpRrFIzZGl6hlKFwwirtlMmRqZpl6FAD6FJWY7D8FS9FKJ4h1ghn6IPh+5h80QAeclccQZqGd0dyLR1dXjy56OUnqvdGzq6urZ5e9jH6DQEotLRjeh05M80d15eq83yXon1/V9Gx+WL94HHy/278dpfYJbsAwLSuM8mhgj+yU1KE+etcdrAUYdF+NMini2oN+P/z+Wn/tKjWrjJsgxJJs4piJcHoz8Ogc2us3+eEoY6Di2pMN/v1B92lal2DLKNcBP6QM7enGHl8+FAj6FDNS/b2rrvj9te7bVKnDTByWsugGCVKUkv7tPZEbvNZ9kNpiPBrI31/bUFK6hM3EcqJ90DP16bOQjNFIiwfnl2lC7D3pRxh2r1K7hNpENCmD4TDb5dYfRURIZPIsrcW9KMG1wavUNUhwbIwS4sQtcNislAbfxlrcf5LCEI/uRb+/1k0Ves0ob5iCP2OkNKD3XXRarfVf9KZ/X3+9EWN4L139UoNRRvKUJthSkzNJDB/PyvAilaEFVv+4aIId0DNWGsPHcYa3KQzxRQLD9FGKSxumoEnT/Jma/iCmaVJ1I669iX5/cJ5mLrhfU7zndk0ZpgaG+gXTNP2Ne4H3tpE6rYJhPeiS73KZZ7jfkM6wCybondGuc1Mdx9orSrH74mL06HG3u/E4Vfnrz+51N84fXFxegVJ9kz4NeU6q6LxiB+xQenpGf92n+kXRsV4bXT3NcEzx1dNnCgkNe4/62dM2/Atq9IveoQEZKDPr/Q983TEYXPqzD+PssJZGvli/9Qdq/126nvHhhJ2tXhfLEPLAWYl8jJ9sDNY20v3nxD/0ffbuuxzhlkWHU8FrGDRNmp1iw72352+eZg21BOij8zdP8oTMsBRlFBpfdEDR5MiSklE3swR9kDgrX9oDJmKhqmbLzmENeVvnIZj77yBdU6zN38ypaJYCUDV7RTIEVdpcNTsfVNUU69XQvRepSbalQaPdXWgUTFM0y1+tSAKsYJwVqUwhj1je/q4ZoNC9YNtF5hSpsVCXvKSWDGBYaCbjI2X4NYiQmYsiGXrbXyNDtcCFxA5luMTdF2lo/q8zxF8FQ9zr5V1c80Mn/9v/LIYkFvpp8PRCz9Ns3Lu8+u6ne6mZ46+Pof6IBMLdwePXOEuQWB89ed4d+FmB3N33NTCkye9+/8VFaihF+D09DzJWgxzR/RIYpuW7kxgSjt0Xz6amMnQivzW6njp4uFKGM9tDIXHa3/juba0XX0Yk6uX1Lc8iDl7lZlgrwR7O7NNIi1CD7vMnFzWiWuGvsZ+iGl097ArrOIP0tGMSw0K9tln9Uv21lPwe9AffPX09ugw2lei92uXo6vHzrrQC0L/Nby7MEvzSWWMLfPE8mq3vbpy/un364NGDB7ePH3a70QWOjJVREQpNqRQaW8waHxJ7GFuj8UUZ7ioZJPxu43VuhqXEhzPH+L0XsbXSdAzy7yOjMX6xK90z52kCkz8D+i/yPpmtdBebp4nk2nLUghhFJ2I6uo+yBil/Zym5NjFfimuK5bQcK2NYzTZM32T4bFixXPJO/1ssPCx0aaZDN2IgDWOrHdbSUW0npVn6s/gmhLRBmr4O4Jr0naaLWc672J20sG5h4aZwuNmQNw9B7ZlwUL2Lacz77KforwbiqiEWnxPws4V3mhaMp2L3RbG1pzZ7Wfga4eBTw7KshgYTRn+7EaH3/cuf6c/f//LzffF3/Rd8FmItfA5zgBRTrntjgLHwCmV4otaTYcD2Gsc0/PJPdptuZcC6bBJ//WF9/YeQ6y/r67+/FDkOLnTGr2kbKlINuxlyxJpc8YSh6PXDzjSGKNicIZZBQE2FzkTuud3/jfAjeOnT+vl3/8fff/0Tftvlu4ocKKpE/hMYX8We8uKi14BhHT8JZPK3xBpBcOqSb+O7/+s6xW/31+6/pz+/Bwk+BI2lmGJHqqZS06YRLP580LUsRJGRobUiAyk8MIQv6b6F+38AQTJO//yV/yOcl10YozhSZ4iYX04wKIEmoOi9GHxnYsCgZbm8fhWK9TMKN4LrF8FWxfsv1znei/8I5iX3uZuxGSfMQduxHOFFxe+n8USGrl+/qzF1APlzkVK8NwgUyzS8/5NMQjCF1vRSfcggUwHjBq/PU/ieKO9YmIiwEtyOtkOQQRhn6Rf9/s/TCa6v/7LB9j0rgrKKyTJ8o3R4/bhAe3h8KusZkyoGHDGOptO0I9/RR+/+SCF45/e3kMTBfDK3nab0XEKQfkma8Gh7ryBtc7odGT5srVuRVIPjl16DTwxqFvXLD3emE/xryOwEE2FgYV2hXpRwIl4qsUSGav2mAEF6h9HpwU8jYFGZh7whPGW7NDH++Hcyxzvrnxrcl4H9anRfmSgttmcXR+dFXT1bXIw78flv8GRGg/1Wpe1wQBTsO7ryr78+R0ne+fz5kysckmFnKejwVriqFpzfuH+Dtr0FCR4lKDhhFy1m4wYEi+EDnvHAuj789Nfnz3cAnz///eGjnA7XIh3FxWXyr7n1ONQFj7IdJ2twvtebWWmYnNA0+SA01jX3478/fPnyny9fPnz66GhYjnhZTzHRs7EgxKGJLuqCdoOda0Z1yS/jQgQbxTaewj5lVd5NjOkBNb3n/38ssIRHN6MM+QEdLGpYoVLWQkFGh5XZMdum8FhxtzdtCmOIoacTtxdNiZmBD691Qz8RHuKKpe/sdhvqECwUCm/y3d0YK67NKsyqQtbNjDQFzkSo+femwCwUtiCHDIUxCmPD93DIKMcsrlooYQN6Bk5UWqzQCB89OGwe3/IGli31jJsMGH8GG9nhdBY6iZeOMODVRWyOotMQcc3CSzfy/dCB7UJ82oEQs46a8tYzEbKPwriQ61HwglG9yZYWqEVZKHEaZ1hjXotgiAOhia0DPZizuAt7ZCPSS/Bv7lrYQlOKYHiUsDUYO7H2hHaK02E6wcwjRP5AIeHsdxL3i2iciJB06KqIUSpoGqFFGsxGGKihC85PBzMjmWcZgB25E07FBRk9Po/ZtmDppAAkOBY6bwnWAhkSRRqrIngjDr1RbjB4o3Osx8GY5t1BpQpqhhJEpvQw5vYvljgFi4/k7sOh708+pR8Euh21IcrhxtnM0qcsahLciJAgLCGABJuSMWUBONr1FmHIc2xIWpWhET6rhBUqF9LLWPx3wDojXc8mIddczfCldJpj+iZXGkXcRV3Qa9sVvCNbcsOUYDKyCiA0BcFKYPIWpJoMzAwFakmTmvUondNGQ9IEQmXMxQq5SbEhMUXSkAsnI7UIoFxs+bfB6EqhyDsChjNbNqDfCDtSHOwYy/WU0QLnnsUCpaEYXcFnpgMsFBsTBsxMnspNUahcIzHTCSF0KFIq0LY4Ba1o0nEBt+0swpCI0RSNeCgBk7ZFpoM1/mdTHFQSl7Dyki77TBwLNKgSVYDSipXhn78qD6tQilSVR0/CvMKu/ykNwv2ENRILYQrxarJvI4hZGMmBraciDWy6yt+IiRJHQqPAx583ww9ZYMPVNIvVhPcNB3cX/Q5VKSu3bTYFk8XVJEqsmsXrBcoKt2WaNHHhu2VIOBCIGyazXm2/UeDjz1vtBPQMfYXFEwtcUL6byhoYvSuAW4IE940nQNC0A/AukZLgiPIBarqh5WWFh+ZkSE0FO3OIG236RIMt/xLLZBpTA0EnNs84QaZl0FSvQLNth/+OVt0luoD7/HQYqAsy5O4iJgFiaK0EjZNiDPiKcfxoJvNdU8pIC5obanz7+pz/fkGGO+Bgi6+kYx/lC/64Dx7dqAKrFGkEhedQDYPqUmEVdmR2Toa0yACyRTERe0s5ZrqcQRtYrBgRYjzMTCPYoqpc9jnwovUHmLWQnfqaFg6YfPVnWYkAaVcD99byFMpW6AKJKfmNmCXG5y/EB8U+RIUWNjuc9CmVajign6XiUqz38+Ry6GyOKjSN5/jn9kxPuVtKAiOp/4KK6bkCXPBtpBATgsI8ewFDeSN5gJKBy/P+86cxYKNQ8Jh2pF4EGaox9ZEIEJfQHSyPnFo1jDEkDlVbk3SB1hIvwZg/BI4sWpiuJuocrZnvvgdIvYmOC3yWq4uUduRmF6stBxfzL12IIgy7vCUql7zbaalKFv0aJ/8glV9FxOcEaljatzDvPOS61LXcdsCSOBSpdSMSWwcjMr6WNvOBRkzEF3IzHctiunTeMP+Ed77/vzCpj5DRnK1qIpSrNuIMZzzQSExx0CRkBPdlYXBt584nwlYvFru5cN1dc5brLECGCzL0XY3QDhtMZ1HPe+6JGGVI5jx4v3ZaIZ5o0wqYh0KW1uARGl6UIU1iSE2jEQwycs8g3JiuS2c4HE4zX/W2oOtglM5dl3YL9KjoZGOlGVxBmf9aEpCX8BfMactdwiAs+KGaotlgRUDmTyjCNhpVzpXWWvYsdyKA7y0ObMjyotxKSzFVf0emwA+z6HP+syV8M1tk3ilaflUDHS05sRBVzTAU/HfKOVNonLozL0FWz1Oe3zMCwiQ5+c2K581Zr1e8g26R40GbQsrb5zhHa9hOoGCnLezhxpBnm7M4v7D1e8Ei5uLuZ3/5debm8Ai46biuFcK/S5ZlEvNEwCIwVhzxGtpFL/bYjzrftZkuH4vv04LeYj/lCS/EJ1rytr7Fby45idzQLDvfWc1x6tmYoTY4cbsju1pRAeVot3YjG6CJ05tX6yRt04rLs5lvfmPFbUduSVYLujvwKHoRdUAyu1U4vq05maKZdY47cPzbketc66i4y1i9vdhl20hNv8049NNzEfTRmjq9fQ2sWI4Zuw4bFXsv8taNEeVYD2+ktgI/I9a8hmvHNzPHhMd/tFtWdFEgsC6Kf7W1Eb/aGqFJ0cXn795EtwoHTQwuFXf8m7fBzdG0htUyDaFNaHe4XVdVf60ohP9z3RjuTsRH0Qu84Sn+td1O07QNlNBTqrEz9gomSHC8P0y8Gd7vUFS3bTOEHRUe0efe1nh8cnCwQ7F3tD8ebx1HbBG9hB2eEhwyShoHSDUOSrtuZnxTj18PL9BEdRS/Kj3NYJ3EbmMPnzJ1hBP5T8q92MrbPzSmkkxqUT29PZvD5GExjd7u6RJuCO7s72znJalOssZT5zom9Wn0jMnBXa98fgHunuxsTx+vvE3DPANqc7eeJUek1rd3T5d8+bE33p8Yvn6c2ij1LK/DMT5MfQ550ul4RddXd06ODodqaAh4m/xG2ZPTmepR79/YoTmRnuI/52B/1RdXe97W/tHe9WR3GGJ3crN3uuXN/pzOycH1ZEKfcja5uT7Y3/Rmf05p8LxOiMUaVcxTKlSoUKFChQoVKlSoUKFChQoVKlSoUKFChQoVKlSoUOH/E/8F7LyJaPi/zXcAAAAASUVORK5CYII=;" parent="1" vertex="1">
          <mxGeometry x="-260" y="-210" width="52.5" height="52.5" as="geometry" />
        </mxCell>
        <mxCell id="u9nLd--eHnFeTg0ip979-5" value="" style="shape=image;verticalLabelPosition=bottom;labelBackgroundColor=default;verticalAlign=top;aspect=fixed;imageAspect=0;image=data:image/png,iVBORw0KGgoAAAANSUhEUgAAAWoAAACLCAMAAAB/aSNCAAAAwFBMVEX///8Bk+EAAABDyOwAjuAAkOAAjN/29vYAi9/o6OhBqOeEhITc3Nx9fX0AlOHj9Pyp1/Opqan4/f51vezt+P3y+v4xxeu02vTT6vnM5/il0/L0/P7x8fE3Nzdis+lOrug5pOaNxO6RkZFFRUXA3vVZzu4jnuRwuevc8PsemuODw+673PUmJiYRERHO8Pql4vXAwMCenp571vFUVFSay/BeXl5SzO266fdvb2/Ly8uT3fMAgt3b9PswMDCysrKE2fLbpToqAAAOBklEQVR4nO1d6WLavBIFarsuTSFlCVubQEMAk7ZpEtp0u+37v9VlC54zGknWFygO6PxLELY4Hs+m0ahQeBZoXs/Oy0mlWKwko/L5oFXd94QOFNXZKI7CsLhGGIZRXJnse1YHiPZ5FGxo3qBS2/e8Dg7V80jleS7ZF/ue2MGhW5GILhaD7r5ndmCojSOR6LlUt/c9t8NCs6xjuljZ99wOC82+rDwWQn2+78kdFspapr2q3i7OAy3Txch71VvEaaxn2qvqbaIhetNRHBeTShyP9z29Q8K5QnUYJYNhY/nh0Lt620NHcfOii86+J3WYuGBCHVaG+57SgaLNme439z2lQ0U9ZEz7PN6O0EtQqJPGvmd0sBhi9BJ5g7gzoP4IvRe9O2CeKfQLiTvDpOKF+h9hCPFL5EPD3WFK9Yd39HYJCBXD6b6nc8Bojryn948wAf/DFr6M4hS/jvyxvCxRZPjCNQ1gwrJ5cJN6K5XeVmb8bOFMNVrFunlwJ8z+WA4ezlTD8m1kWbDtklfg6C2oK9UNyDUFlgVbuloTtLYz42cLV6onkGuyWkX6Bhx7BO9K9SmNFW3qF2L40ZFbRWeq6y5WkaZbfcmTK9VoFS3ql3orwWw7E36+cKQarWJosYr0ufi40pHqNqT1LFYRnkvl6JfFHKmeucSKbQhgjj4F6Ej12CWt1yWvgM2CHgHcqK7BYld0bR5Nn0t0uq0ZP1sYqR6XOYqAvvJ5mVbf0Odis6BHACPVlZADqS4qn4ej9NtVCGCO3iqaqTYVUcugKpkWUfrtdWaqJ+5U06Bm4NN6ABPVQ+0WLr1UEz1B03qRL1U1Ut017HfRME08bViErBx7Wq9gpnqg38Slo5roCboIGfb/6Y/KJ0xUq9swbIhJoqNFreLRp/UKZqpHzlRXiFdN0622hbGjgIlqd1VNXTqa1vObzgtGqhu/IgQT8khBTHLSkNbz1e4FI9W1KsMpiHmFfzwHyd7RdGumuoReL4+5v5dfPnz9OGfm0+Wbt6/EESe3by4/rUbcnhgvZYoWGZwyqLPMAUzt883d1dkS3+5+PuzrBXhL8EjZl69Az/vbd+xLJ69hQOnjB/l5LOBCNXgk4SD7YEMAU3u4m1P8YoP5H1c3Jrbb3VMCzYUb3dYcw2Gn02m325r9Z53T+ZjrxaD5mEaB8nC7HPDlfUnBLb3CyXd1QOkNfxyPcKEaS0DM8V8Pqih1ab3ezTdCc0r33WfthVsxNQ59edB4PigI1oN+aVY1F8ZmPSj+1VaofoUSvZHsVEncigNKn77I93OgugkpEUtWtEqVTaIZ9PBCIHrF9t1vzXc6YJxHon6fZNmt02XL+YzqH59kIkulNZMvJZFe4YN4QweqMSViaY/Qstcl/L7SEb0k+6dsJdt0EsVEHISxl8aq0Hd00VYDqf6i5bFU+rH4+st7w4g30g0dqEaraMmK2usSbgw8L+VaLtFp4FYcaRDfAi+KvhLMUh7evjLwWCotTJ+sXh4hybUD1SArtrIOurcglOoS/ppEes70je7KYDFiyeTxBjyJlOuiofCyVwzl4fZ/RiIvC4XXxgFryUc4UO1kFaGwWvUoandGps++6VQ128sXCxbjmud+JbNyrSg4yoNWT6/x54dlQOnjS+WW2alugFW0FDu2yWAprWdh+q8hmoGXSyrkUVI3kljQBxYv0wY28oBIwQ1kUFVIdqqdrCKYd7UuQWWaOtdnD6ZLTy2lbF1lQUNQdkI1oQvVWaCIdXaqnawirUsIlBqGmzPO89XPh8936z+u6AszVhJVQKXQ/IwTLXp7UOK2uoVM2Mf7+0sLp+/v7yUhf8vvmZ3qCxerODLVJXxGps+uHpb64u/qr59kZDuJFPcBugmo85iq+UhVLmDjyNoVFdj6vjZu7/5oFcaHdURz8oF/cslvmp1qmL1lrbBJJY/rmh4j+jEyXEk1jRO7UVgMuPppG9MDTWHpOVRKu6nYBOv3RmHxnqYz/ohEfydaQglpeICemWq0irE5KTQ01SWAm0ecuruFM02u27xY3pJbviqwyHXDWFrO4N5eWxBqhWoWhpwITDMdwQT7D5taZqqdrOLAEMD8BvVBhPjqDJzpTrK6iBLsUT+SP8eJuMjPt+ycS6sWXGD5b1Ljx1s+BOWa+yCZqXayivCCMl1zR5mm4nYFymOwIS1mF6CJLP4ceAOvFZi6E4WaUf1J/VFcQSgPo/AOPv/KPs1MtZNVpIIXoK6hQn0GgcpfqlFJ00QjnSP4qCOv0bHpjsVIFnkUsnNchQiZaYghP7IPM1MNqQeLVYSyKCSj8DOj/0wSGTE6fLAdBzUZ8eGSPuETTOuEfJ1kwkpWJtDrk1JKJ6ZrZKUakqJy6iEF3QbGDRdh+s54kdRrY4s4oMoi6guSaDuYEXuB+q4up2eACDEN+gaGCFkOdhH2WVaqsTeWLgEt/BhWWE186jOzF1OraG4Hu9ypK0Srv5MmSYWEfaKbqAdDn4Gdx7egHsTFlksDm1mpRqtoqaChAQxLCKX6A2IV8ZaRfA1YHKDKhWQDohkMowkvGuPQnCMQoSaL5oAc07045+8GNrNS7WIVa1RVR/gZsYm2Mr7e5pYYflchCZJajSZJPY6aUN5NnlVDI9TGd38F0MSq/7HAa8NFslKNVtG8Ma6jr0vopfrjyniNBTaeAnuLNPkmUmS8rKYizJM0DC1FDujvcKRaXGjZBtW4Wheb9zBDXQJGzqmq1uf+N0itK3oxNHGeCjxZngmXiRPijqSvIU2koxjkhWq0iiPtuCWosmFu4UNKtX5R/BFpLgC1UFmMRevE/ViKOjHOqbc3I28cCHVuqB6AVbT01gOzhW5hmj49s3cHTn2QGNJ7EII8vjXkvVuvRZBs60Yp18gbwXRbXqh2sYpVahWZW0gCGHvZWG3jycRgQmfSajzJa6xTAdQFeczt0SULZnHyQjWsK1qsYssQwKRUf8tQobfRFOjttYS8IQnJH/9Fo8JiQ/kdPN7PCdUw62JofvehLoGtkjhJNaEapBpStP3V/8hrt3GWCa/rZ0XD2JgJTE6oBqto220BAQxbryIRjJMCgcASMqUrDUXYTz1D6oKsfEKDUOeFatgVY7GKNXgs7EPigdgrTolZxP/Hyh1ISJ4mp8fc22sZhDovVLtYRZrIVESHUG1cFl8iTRCylQgymZVzQhQDEQRiA1f/Je+bWl2WD6prWFFktopdfQBDs9XWFAi5El+JgCKOKs4vSt+WITOVQ/I2qD8iH1Q7WUUorFbKNFKz+M14lQU27xJ/YnCLNsQluu18i/ixbxLqnFAN64q2Psr0DVBXe6/SdJMtXGxs7sq7YQwwHG1Sl4fmDFA+qGYT3sx8UD11sIqQLVHz2qTaxrwyQLOdMXu4EIi0ICQHO0J089zbKxuFOidUo1U070G0NHwjS4tn+hLIBVKhVhaN6eJA0IWyCRhHFE103TYLdT6oxoNguKvMYCusThPWFm2dPl+lQw4UX84ooSgGJIIPumSYuOCfC6rRKlpai9kavhENwpwQ1BJdQic3Dj1KNb0hU1j0DeuT7KmYWcgF1RgrmluLQWF1UfBVmqm7B3WQhSrwRJYXAnUvGUyIUMgcHmzgahbqfFDt0rIaG75JIx5jcybTrZCGhLB+qL5GsH0svV+fj5M3yculFbmg2sUqWgqr52isiH4B0WJvcSZ6+meLiqqwQVIuYlJL1hNpmGYbUh6oZgc5mK0iRBdyw7eFtoY6yPm70A+Iom3U6fOSOgTXJaoFvSC22dDsLckD1WgVLTvzs3SsZnWQc09hqXDXVDe7SWAjZiYp4UA1dtI43Y7tPFDtcpADNHxLNBF89QoCxcb6oO7FimWjUweiRfWBKbrNzITiFGmcbsNUHqh2iRU75gBmDfBhHot7i8n0vJ+wVn6BXPKqHs4r9xxpq+O0spIHqsEGWfrVQJWFZcP/+hspuULLRM1RsA11b4AoAzV1nHYXYA6odrKKF5YAhqNRNrXSCbU9JwWpFg2D4oLoFWAOqHY53ghDePs6y1CRY3isfW1pj0JhILccUbxC/dbWHFDdcrCKEMDYD62rG9tTRgazwPc269IFvH+dYV00B1S7xIqmugQF1cSoPEJTG2a+u0hnF06ZpjHs184B1WgVzW2onRq+1WZFLddhcGFUP1xadX4lc1VMi/37p7qJBzmYrSJd9LOdhFRYhIWVQIz7wrKlhyrb3azNFvRQRZmam++fatyZYbaKVeeGb9XZKES2wzBKzq2+C27tC+VmNwtg95C+4ZL7p9rFKnbitGd4lPEgulp7Wk6CIFh9KaqMxtcZnhH2ew70ag3PsTG9K/un2sUqDsf1FA6HC1Qnrdm0Xp9Ou51qtmZ7taBY2aDY1w+chtnGFQqvKOxD5L5j70wXsd0BrWJuTpeDToqGaolmxnE5gJNV9HgKqi7HG3k8BZCGPPozV3cKp6NwPZ4CdJYsxxt5PAFNDOa8VdwdMF2THPuZq7sEeNXeKu4Q2J/HH1m0Q2Ba2NKc0+MJ4AvO/siinaGP6U2vqneGesb8u8dTMWPqI/QJkB1hypn253DtBlWlFsayMcPjv2FSV2u6/JGr20NtMGzUCo3J9WDEj+sq8uYFHk9CJ47iBSKpuivykeIWMTXUz4WWdk0eTpD38qyp9ie+bxETA9M++7FVGM53NpS0ePwHKHW0G+UR5qb64zAAG4aA6SRD9b+HA641m4SDc5/62DLEoyfCaOQXybeNprBHOIxHp3k8GviZY1JZRIlkX1sUV+peSe8G1evZ+GKULKxj0r8YtI4saPk/45AJR+M6qF8AAAAASUVORK5CYII=;" parent="1" vertex="1">
          <mxGeometry x="50" y="-371.05" width="112" height="43.01" as="geometry" />
        </mxCell>
        <mxCell id="u9nLd--eHnFeTg0ip979-6" value="" style="endArrow=classic;html=1;rounded=0;" parent="1" edge="1">
          <mxGeometry width="50" height="50" relative="1" as="geometry">
            <mxPoint x="104.52000000000001" y="-470" as="sourcePoint" />
            <mxPoint x="104.52000000000001" y="-380.71" as="targetPoint" />
          </mxGeometry>
        </mxCell>
        <mxCell id="u9nLd--eHnFeTg0ip979-7" value="" style="endArrow=classic;html=1;rounded=0;" parent="1" edge="1">
          <mxGeometry width="50" height="50" relative="1" as="geometry">
            <mxPoint x="114.52000000000001" y="-379.29" as="sourcePoint" />
            <mxPoint x="114.52000000000001" y="-470" as="targetPoint" />
          </mxGeometry>
        </mxCell>
        <mxCell id="u9nLd--eHnFeTg0ip979-21" value="" style="edgeStyle=orthogonalEdgeStyle;rounded=0;orthogonalLoop=1;jettySize=auto;html=1;" parent="1" source="u9nLd--eHnFeTg0ip979-10" edge="1">
          <mxGeometry relative="1" as="geometry">
            <mxPoint x="160" y="-552" as="targetPoint" />
          </mxGeometry>
        </mxCell>
        <UserObject label="&lt;b style=&quot;forced-color-adjust: none; color: rgb(0, 0, 0); font-family: Helvetica; font-size: 16px; font-style: normal; font-variant-ligatures: normal; font-variant-caps: normal; letter-spacing: normal; orphans: 2; text-align: center; text-indent: 0px; text-transform: none; widows: 2; word-spacing: 0px; -webkit-text-stroke-width: 0px; white-space: normal; background-color: rgb(251, 251, 251); text-decoration-thickness: initial; text-decoration-style: initial; text-decoration-color: initial;&quot;&gt;arr_comp_esco.npy&lt;/b&gt;" link="&lt;b style=&quot;forced-color-adjust: none; color: rgb(0, 0, 0); font-family: Helvetica; font-size: 16px; font-style: normal; font-variant-ligatures: normal; font-variant-caps: normal; letter-spacing: normal; orphans: 2; text-align: center; text-indent: 0px; text-transform: none; widows: 2; word-spacing: 0px; -webkit-text-stroke-width: 0px; white-space: normal; background-color: rgb(251, 251, 251); text-decoration-thickness: initial; text-decoration-style: initial; text-decoration-color: initial;&quot;&gt;arr_comp_esco.npy&lt;/b&gt;" id="u9nLd--eHnFeTg0ip979-10">
          <mxCell style="text;whiteSpace=wrap;html=1;" parent="1" vertex="1">
            <mxGeometry x="210" y="-571.87" width="180" height="40" as="geometry" />
          </mxCell>
        </UserObject>
        <mxCell id="u9nLd--eHnFeTg0ip979-11" value="" style="endArrow=classic;html=1;rounded=0;" parent="1" edge="1">
          <mxGeometry width="50" height="50" relative="1" as="geometry">
            <mxPoint x="289.44" y="-595" as="sourcePoint" />
            <mxPoint x="289.44" y="-569.06" as="targetPoint" />
          </mxGeometry>
        </mxCell>
        <mxCell id="u9nLd--eHnFeTg0ip979-14" value="" style="endArrow=none;dashed=1;html=1;rounded=0;" parent="1" edge="1">
          <mxGeometry width="50" height="50" relative="1" as="geometry">
            <mxPoint x="-260" y="780" as="sourcePoint" />
            <mxPoint x="-210" y="780" as="targetPoint" />
          </mxGeometry>
        </mxCell>
        <mxCell id="u9nLd--eHnFeTg0ip979-15" value="Analyses&amp;nbsp;&lt;div&gt;statistiques&amp;nbsp;&lt;/div&gt;&lt;div&gt;par la DDFC&lt;/div&gt;" style="ellipse;whiteSpace=wrap;html=1;" parent="1" vertex="1">
          <mxGeometry x="-200" y="740" width="120" height="80" as="geometry" />
        </mxCell>
        <mxCell id="u9nLd--eHnFeTg0ip979-22" value="" style="endArrow=classic;html=1;rounded=0;entryX=0.765;entryY=0.116;entryDx=0;entryDy=0;entryPerimeter=0;" parent="1" target="i0cpfaNezCLfOTg-FPlP-6" edge="1">
          <mxGeometry width="50" height="50" relative="1" as="geometry">
            <mxPoint x="415" y="-584" as="sourcePoint" />
            <mxPoint x="415" y="-620" as="targetPoint" />
            <Array as="points">
              <mxPoint x="415" y="-610" />
              <mxPoint x="-120" y="-610" />
            </Array>
          </mxGeometry>
        </mxCell>
        <mxCell id="u9nLd--eHnFeTg0ip979-25" value="&lt;div style=&quot;&quot;&gt;&lt;span style=&quot;background-color: initial;&quot;&gt;Avis user : enregistrement des segments&lt;/span&gt;&lt;/div&gt;&lt;div style=&quot;&quot;&gt;&lt;span style=&quot;background-color: initial;&quot;&gt;Embedding des segments&lt;/span&gt;&lt;/div&gt;&lt;div style=&quot;&quot;&gt;&lt;font style=&quot;font-size: 12px;&quot;&gt;Récupération des prédictions + avis&lt;/font&gt;&lt;/div&gt;&lt;div style=&quot;&quot;&gt;&lt;font color=&quot;#ff0000&quot; style=&quot;font-size: 12px;&quot;&gt;Envoi dans table_monitoring_contxt et table_monitoring_comp&lt;/font&gt;&lt;/div&gt;&lt;div style=&quot;&quot;&gt;&lt;font style=&quot;font-size: 12px;&quot;&gt;&lt;br&gt;&lt;/font&gt;&lt;/div&gt;&lt;div style=&quot;&quot;&gt;&lt;font style=&quot;font-size: 12px;&quot;&gt;Calcul des métriques obtenues pour chaque offre&lt;/font&gt;&lt;/div&gt;&lt;div style=&quot;&quot;&gt;&lt;font style=&quot;font-size: 12px;&quot;&gt;&lt;br&gt;&lt;/font&gt;&lt;/div&gt;&lt;div style=&quot;&quot;&gt;&lt;font style=&quot;font-size: 12px;&quot;&gt;Calcul du nombre de runs MLFlow&lt;/font&gt;&lt;/div&gt;" style="rounded=0;whiteSpace=wrap;html=1;align=left;" parent="1" vertex="1">
          <mxGeometry x="281" y="120" width="310" height="140" as="geometry" />
        </mxCell>
        <mxCell id="u9nLd--eHnFeTg0ip979-26" value="&lt;div style=&quot;&quot;&gt;&lt;span style=&quot;background-color: initial;&quot;&gt;Si 10 runs : calcul des métriques sur ces 10 runs&lt;/span&gt;&lt;/div&gt;&lt;div style=&quot;&quot;&gt;&lt;font style=&quot;font-size: 12px;&quot;&gt;Si baisse : réentrainement&lt;/font&gt;&lt;/div&gt;&lt;div style=&quot;&quot;&gt;&lt;font style=&quot;font-size: 12px;&quot;&gt;&lt;br&gt;&lt;/font&gt;&lt;/div&gt;&lt;div style=&quot;&quot;&gt;&lt;font style=&quot;font-size: 12px;&quot;&gt;Si métriques de réentrainement meilleures que pour le précédent modèle : devient le nouveau modèle&lt;/font&gt;&lt;/div&gt;" style="rounded=0;whiteSpace=wrap;html=1;align=left;" parent="1" vertex="1">
          <mxGeometry x="-323" y="-10" width="310" height="100" as="geometry" />
        </mxCell>
        <mxCell id="u9nLd--eHnFeTg0ip979-27" value="" style="endArrow=classic;html=1;rounded=0;exitX=1;exitY=1;exitDx=0;exitDy=0;" parent="1" edge="1">
          <mxGeometry width="50" height="50" relative="1" as="geometry">
            <mxPoint x="270" y="230.07999999999993" as="sourcePoint" />
            <mxPoint x="190" y="230" as="targetPoint" />
          </mxGeometry>
        </mxCell>
        <mxCell id="u9nLd--eHnFeTg0ip979-28" value="" style="shape=image;verticalLabelPosition=bottom;labelBackgroundColor=default;verticalAlign=top;aspect=fixed;imageAspect=0;image=data:image/png,iVBORw0KGgoAAAANSUhEUgAAAWoAAACLCAMAAAB/aSNCAAAAwFBMVEX///8Bk+EAAABDyOwAjuAAkOAAjN/29vYAi9/o6OhBqOeEhITc3Nx9fX0AlOHj9Pyp1/Opqan4/f51vezt+P3y+v4xxeu02vTT6vnM5/il0/L0/P7x8fE3Nzdis+lOrug5pOaNxO6RkZFFRUXA3vVZzu4jnuRwuevc8PsemuODw+673PUmJiYRERHO8Pql4vXAwMCenp571vFUVFSay/BeXl5SzO266fdvb2/Ly8uT3fMAgt3b9PswMDCysrKE2fLbpToqAAAOBklEQVR4nO1d6WLavBIFarsuTSFlCVubQEMAk7ZpEtp0u+37v9VlC54zGknWFygO6PxLELY4Hs+m0ahQeBZoXs/Oy0mlWKwko/L5oFXd94QOFNXZKI7CsLhGGIZRXJnse1YHiPZ5FGxo3qBS2/e8Dg7V80jleS7ZF/ue2MGhW5GILhaD7r5ndmCojSOR6LlUt/c9t8NCs6xjuljZ99wOC82+rDwWQn2+78kdFspapr2q3i7OAy3Txch71VvEaaxn2qvqbaIhetNRHBeTShyP9z29Q8K5QnUYJYNhY/nh0Lt620NHcfOii86+J3WYuGBCHVaG+57SgaLNme439z2lQ0U9ZEz7PN6O0EtQqJPGvmd0sBhi9BJ5g7gzoP4IvRe9O2CeKfQLiTvDpOKF+h9hCPFL5EPD3WFK9Yd39HYJCBXD6b6nc8Bojryn948wAf/DFr6M4hS/jvyxvCxRZPjCNQ1gwrJ5cJN6K5XeVmb8bOFMNVrFunlwJ8z+WA4ezlTD8m1kWbDtklfg6C2oK9UNyDUFlgVbuloTtLYz42cLV6onkGuyWkX6Bhx7BO9K9SmNFW3qF2L40ZFbRWeq6y5WkaZbfcmTK9VoFS3ql3orwWw7E36+cKQarWJosYr0ufi40pHqNqT1LFYRnkvl6JfFHKmeucSKbQhgjj4F6Ej12CWt1yWvgM2CHgHcqK7BYld0bR5Nn0t0uq0ZP1sYqR6XOYqAvvJ5mVbf0Odis6BHACPVlZADqS4qn4ej9NtVCGCO3iqaqTYVUcugKpkWUfrtdWaqJ+5U06Bm4NN6ABPVQ+0WLr1UEz1B03qRL1U1Ut017HfRME08bViErBx7Wq9gpnqg38Slo5roCboIGfb/6Y/KJ0xUq9swbIhJoqNFreLRp/UKZqpHzlRXiFdN0622hbGjgIlqd1VNXTqa1vObzgtGqhu/IgQT8khBTHLSkNbz1e4FI9W1KsMpiHmFfzwHyd7RdGumuoReL4+5v5dfPnz9OGfm0+Wbt6/EESe3by4/rUbcnhgvZYoWGZwyqLPMAUzt883d1dkS3+5+PuzrBXhL8EjZl69Az/vbd+xLJ69hQOnjB/l5LOBCNXgk4SD7YEMAU3u4m1P8YoP5H1c3Jrbb3VMCzYUb3dYcw2Gn02m325r9Z53T+ZjrxaD5mEaB8nC7HPDlfUnBLb3CyXd1QOkNfxyPcKEaS0DM8V8Pqih1ab3ezTdCc0r33WfthVsxNQ59edB4PigI1oN+aVY1F8ZmPSj+1VaofoUSvZHsVEncigNKn77I93OgugkpEUtWtEqVTaIZ9PBCIHrF9t1vzXc6YJxHon6fZNmt02XL+YzqH59kIkulNZMvJZFe4YN4QweqMSViaY/Qstcl/L7SEb0k+6dsJdt0EsVEHISxl8aq0Hd00VYDqf6i5bFU+rH4+st7w4g30g0dqEaraMmK2usSbgw8L+VaLtFp4FYcaRDfAi+KvhLMUh7evjLwWCotTJ+sXh4hybUD1SArtrIOurcglOoS/ppEes70je7KYDFiyeTxBjyJlOuiofCyVwzl4fZ/RiIvC4XXxgFryUc4UO1kFaGwWvUoandGps++6VQ128sXCxbjmud+JbNyrSg4yoNWT6/x54dlQOnjS+WW2alugFW0FDu2yWAprWdh+q8hmoGXSyrkUVI3kljQBxYv0wY28oBIwQ1kUFVIdqqdrCKYd7UuQWWaOtdnD6ZLTy2lbF1lQUNQdkI1oQvVWaCIdXaqnawirUsIlBqGmzPO89XPh8936z+u6AszVhJVQKXQ/IwTLXp7UOK2uoVM2Mf7+0sLp+/v7yUhf8vvmZ3qCxerODLVJXxGps+uHpb64u/qr59kZDuJFPcBugmo85iq+UhVLmDjyNoVFdj6vjZu7/5oFcaHdURz8oF/cslvmp1qmL1lrbBJJY/rmh4j+jEyXEk1jRO7UVgMuPppG9MDTWHpOVRKu6nYBOv3RmHxnqYz/ohEfydaQglpeICemWq0irE5KTQ01SWAm0ecuruFM02u27xY3pJbviqwyHXDWFrO4N5eWxBqhWoWhpwITDMdwQT7D5taZqqdrOLAEMD8BvVBhPjqDJzpTrK6iBLsUT+SP8eJuMjPt+ycS6sWXGD5b1Ljx1s+BOWa+yCZqXayivCCMl1zR5mm4nYFymOwIS1mF6CJLP4ceAOvFZi6E4WaUf1J/VFcQSgPo/AOPv/KPs1MtZNVpIIXoK6hQn0GgcpfqlFJ00QjnSP4qCOv0bHpjsVIFnkUsnNchQiZaYghP7IPM1MNqQeLVYSyKCSj8DOj/0wSGTE6fLAdBzUZ8eGSPuETTOuEfJ1kwkpWJtDrk1JKJ6ZrZKUakqJy6iEF3QbGDRdh+s54kdRrY4s4oMoi6guSaDuYEXuB+q4up2eACDEN+gaGCFkOdhH2WVaqsTeWLgEt/BhWWE186jOzF1OraG4Hu9ypK0Srv5MmSYWEfaKbqAdDn4Gdx7egHsTFlksDm1mpRqtoqaChAQxLCKX6A2IV8ZaRfA1YHKDKhWQDohkMowkvGuPQnCMQoSaL5oAc07045+8GNrNS7WIVa1RVR/gZsYm2Mr7e5pYYflchCZJajSZJPY6aUN5NnlVDI9TGd38F0MSq/7HAa8NFslKNVtG8Ma6jr0vopfrjyniNBTaeAnuLNPkmUmS8rKYizJM0DC1FDujvcKRaXGjZBtW4Wheb9zBDXQJGzqmq1uf+N0itK3oxNHGeCjxZngmXiRPijqSvIU2koxjkhWq0iiPtuCWosmFu4UNKtX5R/BFpLgC1UFmMRevE/ViKOjHOqbc3I28cCHVuqB6AVbT01gOzhW5hmj49s3cHTn2QGNJ7EII8vjXkvVuvRZBs60Yp18gbwXRbXqh2sYpVahWZW0gCGHvZWG3jycRgQmfSajzJa6xTAdQFeczt0SULZnHyQjWsK1qsYssQwKRUf8tQobfRFOjttYS8IQnJH/9Fo8JiQ/kdPN7PCdUw62JofvehLoGtkjhJNaEapBpStP3V/8hrt3GWCa/rZ0XD2JgJTE6oBqto220BAQxbryIRjJMCgcASMqUrDUXYTz1D6oKsfEKDUOeFatgVY7GKNXgs7EPigdgrTolZxP/Hyh1ISJ4mp8fc22sZhDovVLtYRZrIVESHUG1cFl8iTRCylQgymZVzQhQDEQRiA1f/Je+bWl2WD6prWFFktopdfQBDs9XWFAi5El+JgCKOKs4vSt+WITOVQ/I2qD8iH1Q7WUUorFbKNFKz+M14lQU27xJ/YnCLNsQluu18i/ixbxLqnFAN64q2Psr0DVBXe6/SdJMtXGxs7sq7YQwwHG1Sl4fmDFA+qGYT3sx8UD11sIqQLVHz2qTaxrwyQLOdMXu4EIi0ICQHO0J089zbKxuFOidUo1U070G0NHwjS4tn+hLIBVKhVhaN6eJA0IWyCRhHFE103TYLdT6oxoNguKvMYCusThPWFm2dPl+lQw4UX84ooSgGJIIPumSYuOCfC6rRKlpai9kavhENwpwQ1BJdQic3Dj1KNb0hU1j0DeuT7KmYWcgF1RgrmluLQWF1UfBVmqm7B3WQhSrwRJYXAnUvGUyIUMgcHmzgahbqfFDt0rIaG75JIx5jcybTrZCGhLB+qL5GsH0svV+fj5M3yculFbmg2sUqWgqr52isiH4B0WJvcSZ6+meLiqqwQVIuYlJL1hNpmGYbUh6oZgc5mK0iRBdyw7eFtoY6yPm70A+Iom3U6fOSOgTXJaoFvSC22dDsLckD1WgVLTvzs3SsZnWQc09hqXDXVDe7SWAjZiYp4UA1dtI43Y7tPFDtcpADNHxLNBF89QoCxcb6oO7FimWjUweiRfWBKbrNzITiFGmcbsNUHqh2iRU75gBmDfBhHot7i8n0vJ+wVn6BXPKqHs4r9xxpq+O0spIHqsEGWfrVQJWFZcP/+hspuULLRM1RsA11b4AoAzV1nHYXYA6odrKKF5YAhqNRNrXSCbU9JwWpFg2D4oLoFWAOqHY53ghDePs6y1CRY3isfW1pj0JhILccUbxC/dbWHFDdcrCKEMDYD62rG9tTRgazwPc269IFvH+dYV00B1S7xIqmugQF1cSoPEJTG2a+u0hnF06ZpjHs184B1WgVzW2onRq+1WZFLddhcGFUP1xadX4lc1VMi/37p7qJBzmYrSJd9LOdhFRYhIWVQIz7wrKlhyrb3azNFvRQRZmam++fatyZYbaKVeeGb9XZKES2wzBKzq2+C27tC+VmNwtg95C+4ZL7p9rFKnbitGd4lPEgulp7Wk6CIFh9KaqMxtcZnhH2ew70ag3PsTG9K/un2sUqDsf1FA6HC1Qnrdm0Xp9Ou51qtmZ7taBY2aDY1w+chtnGFQqvKOxD5L5j70wXsd0BrWJuTpeDToqGaolmxnE5gJNV9HgKqi7HG3k8BZCGPPozV3cKp6NwPZ4CdJYsxxt5PAFNDOa8VdwdMF2THPuZq7sEeNXeKu4Q2J/HH1m0Q2Ba2NKc0+MJ4AvO/siinaGP6U2vqneGesb8u8dTMWPqI/QJkB1hypn253DtBlWlFsayMcPjv2FSV2u6/JGr20NtMGzUCo3J9WDEj+sq8uYFHk9CJ47iBSKpuivykeIWMTXUz4WWdk0eTpD38qyp9ie+bxETA9M++7FVGM53NpS0ePwHKHW0G+UR5qb64zAAG4aA6SRD9b+HA641m4SDc5/62DLEoyfCaOQXybeNprBHOIxHp3k8GviZY1JZRIlkX1sUV+peSe8G1evZ+GKULKxj0r8YtI4saPk/45AJR+M6qF8AAAAASUVORK5CYII=;" parent="1" vertex="1">
          <mxGeometry x="68" y="210" width="112" height="43.01" as="geometry" />
        </mxCell>
      </root>
    </mxGraphModel>
  </diagram>
</mxfile>
